<svg width="266" height="266" viewBox="0 0 266 266" fill="none" xmlns="http://www.w3.org/2000/svg">
<path d="M121.296 28.2705C187.264 22.4185 187.392 59.6212 217.125 94.3023C246.859 128.983 253.232 144.704 242.018 184.694C230.803 224.685 193.042 256.02 146.3 238.262C99.5586 220.503 72.8096 237.559 43.3368 221.77C13.864 205.98 2.93672 175.56 24.5093 139.639C46.0819 103.719 39.9373 35.5163 121.296 28.2705Z" fill="#92E3A9"/>
<path opacity="0.7" d="M121.296 28.2705C187.264 22.4185 187.392 59.6212 217.125 94.3023C246.859 128.983 253.232 144.704 242.018 184.694C230.803 224.685 193.042 256.02 146.3 238.262C99.5586 220.503 72.8096 237.559 43.3368 221.77C13.864 205.98 2.93672 175.56 24.5093 139.639C46.0819 103.719 39.9373 35.5163 121.296 28.2705Z" fill="white"/>
<path opacity="0.2" d="M149.2 215.918L148.221 215.811C147.767 215.783 147.339 215.594 147.012 215.278C146.685 214.962 146.482 214.54 146.438 214.087C145.906 208.464 141.055 204.511 134.734 203.793C129.047 203.155 122.498 205.666 118.2 209.964C117.665 210.532 117.011 210.975 116.286 211.262C115.561 211.548 114.781 211.672 114.002 211.624L109.161 211.092C108.496 211.038 107.865 210.772 107.362 210.332C106.859 209.892 106.511 209.303 106.368 208.65C105.23 203.735 100.825 199.995 95.1324 199.356C88.8176 198.649 81.71 201.266 77.5072 206.357C77.1742 206.769 76.747 207.094 76.2617 207.305C75.7765 207.516 75.2475 207.607 74.7196 207.57L73.746 207.459C73.5159 207.446 73.2878 207.507 73.096 207.635C72.9041 207.763 72.7588 207.949 72.682 208.166L71.8787 210.512C71.8129 210.668 71.8113 210.843 71.874 210.999C71.9368 211.156 72.059 211.281 72.2138 211.348L73.3204 211.88C73.7474 212.094 74.0868 212.45 74.2809 212.886C74.4749 213.323 74.5115 213.813 74.3844 214.274C72.6235 221.887 77.0444 228.483 84.8595 229.356C92.382 230.202 100.516 225.44 104.129 218.439C104.431 217.873 104.868 217.391 105.402 217.036C105.936 216.68 106.549 216.462 107.188 216.402C108.912 216.257 110.648 216.438 112.305 216.934C112.836 217.09 113.288 217.441 113.571 217.917C113.854 218.392 113.947 218.957 113.832 219.498C112.534 226.776 116.923 232.957 124.472 233.803C132.277 234.681 140.73 229.547 144.13 222.099C144.376 221.593 144.735 221.15 145.18 220.805C145.624 220.46 146.142 220.222 146.694 220.11L148.082 219.838C148.276 219.809 148.457 219.728 148.609 219.605C148.76 219.481 148.876 219.319 148.944 219.136L149.748 216.79C149.786 216.697 149.801 216.596 149.793 216.495C149.784 216.395 149.752 216.298 149.698 216.213C149.644 216.127 149.571 216.056 149.485 216.005C149.398 215.953 149.3 215.924 149.2 215.918ZM85.5245 227.387C78.2733 226.573 74.3791 220.067 76.8422 212.88C79.3054 205.692 87.2056 200.516 94.4568 201.33C101.708 202.144 105.629 208.65 103.144 215.832C100.66 223.014 92.7756 228.228 85.5245 227.387ZM105.554 214.657C105.655 214.242 105.74 213.827 105.804 213.417C105.843 213.247 105.941 213.097 106.08 212.993C106.22 212.889 106.391 212.837 106.565 212.848L115.247 213.821C115.324 213.829 115.398 213.856 115.461 213.9C115.524 213.944 115.575 214.004 115.608 214.074C115.641 214.144 115.656 214.221 115.65 214.298C115.645 214.374 115.62 214.449 115.577 214.513C115.37 214.901 115.178 215.295 114.997 215.699C111.497 213.965 107.634 214.279 105.554 214.657ZM125.132 231.835C117.881 231.021 113.96 224.515 116.444 217.327C118.929 210.14 126.813 204.964 134.064 205.778C141.315 206.592 145.21 213.098 142.746 220.28C140.283 227.462 132.383 232.649 125.132 231.835Z" fill="black" fill-opacity="0.7"/>
<path d="M142.773 216.343L86.466 213.976C85.1367 213.92 83.8106 214.145 82.5735 214.634C81.3363 215.123 80.2157 215.867 79.284 216.817L69.176 227.116C69.0829 227.212 69.0127 227.328 68.9705 227.455C68.9282 227.582 68.9151 227.717 68.9319 227.85C68.9488 227.983 68.9952 228.11 69.0678 228.222C69.1405 228.335 69.2374 228.429 69.3515 228.499C69.8538 228.796 70.4406 228.916 71.0189 228.841C71.5971 228.765 72.1337 228.499 72.5435 228.084L81.928 218.572C82.4858 218.006 83.1547 217.562 83.8927 217.267C84.6306 216.972 85.4217 216.833 86.2159 216.859L142.608 218.721L142.773 216.343Z" fill="#263238"/>
<path d="M67.7289 207.932L123.387 216.753C124.701 216.962 125.956 217.445 127.073 218.17C128.189 218.895 129.14 219.846 129.866 220.961L137.74 233.059C137.814 233.17 137.862 233.297 137.879 233.429C137.896 233.562 137.883 233.697 137.841 233.824C137.798 233.95 137.727 234.066 137.633 234.161C137.539 234.256 137.425 234.328 137.299 234.373C136.746 234.57 136.143 234.575 135.587 234.388C135.032 234.2 134.555 233.832 134.234 233.341L126.956 222.169C126.523 221.503 125.955 220.935 125.29 220.5C124.626 220.065 123.878 219.773 123.094 219.642L67.4629 210.3L67.7289 207.932Z" fill="#263238"/>
<path d="M100.745 217.37C101.405 217.615 100.559 222.264 98.7339 223.589C96.9091 224.914 95.9994 220.775 96.6431 219.471C97.2869 218.168 98.6754 216.588 100.745 217.37Z" fill="#757575" stroke="#263238" stroke-linecap="round" stroke-linejoin="round"/>
<path d="M110.491 218.46C109.794 218.556 109.592 223.275 111.076 224.972C112.561 226.669 114.37 222.844 114.029 221.424C113.689 220.003 112.683 218.157 110.491 218.46Z" fill="#757575" stroke="#263238" stroke-linecap="round" stroke-linejoin="round"/>
<path opacity="0.4" d="M77.9272 202.096C81.2628 200.122 88.1522 196.973 94.1745 202.176C100.197 207.379 101.755 212.151 99.3349 217.838C96.9143 223.525 91.2857 230.686 81.5501 227.558C71.8145 224.43 67.5638 208.225 77.9272 202.096Z" fill="white"/>
<path opacity="0.4" d="M117.498 207.065C120.839 205.091 127.723 201.942 133.745 207.145C139.767 212.348 141.331 217.115 138.905 222.807C136.479 228.499 130.872 235.676 121.121 232.521C111.369 229.366 107.129 213.194 117.498 207.065Z" fill="white"/>
<path d="M144.071 215.694L143.092 215.582C142.607 215.532 142.147 215.341 141.769 215.033C141.391 214.724 141.111 214.313 140.964 213.848C139.208 208.172 133.596 204.182 127.281 203.474C121.594 202.83 115.758 205.373 112.523 209.72C112.103 210.3 111.538 210.76 110.885 211.054C110.231 211.348 109.512 211.466 108.799 211.396L103.953 210.864C103.241 210.774 102.566 210.499 101.994 210.067C101.421 209.635 100.972 209.06 100.692 208.4C99.4984 205.863 97.6778 203.671 95.4017 202.032C93.1257 200.394 90.4695 199.363 87.6842 199.037C81.3694 198.324 75.0119 200.974 72.0434 206.118C71.7976 206.538 71.4348 206.878 70.9992 207.095C70.5637 207.312 70.0743 207.398 69.5909 207.342L68.6173 207.23C68.4043 207.206 68.1904 207.268 68.0228 207.401C67.8552 207.535 67.7476 207.73 67.7235 207.943L67.4575 210.31C67.4386 210.49 67.4808 210.672 67.5773 210.825C67.6737 210.979 67.8189 211.095 67.9895 211.156L69.1919 211.715C69.6567 211.925 70.0514 212.264 70.3287 212.693C70.606 213.121 70.7543 213.62 70.7559 214.13C70.7407 217.82 72.0642 221.39 74.481 224.179C76.8977 226.967 80.2438 228.785 83.8985 229.294C87.5533 229.804 91.2688 228.97 94.3558 226.949C97.4429 224.927 99.6921 221.855 100.686 218.301C100.848 217.74 101.177 217.242 101.629 216.874C102.082 216.506 102.637 216.286 103.219 216.242C104.939 216.102 106.671 216.282 108.326 216.774C108.891 216.944 109.391 217.282 109.758 217.744C110.125 218.207 110.342 218.77 110.379 219.36C110.554 223.048 112.06 226.548 114.62 229.209C117.18 231.871 120.618 233.513 124.297 233.831C127.976 234.148 131.645 233.12 134.623 230.937C137.601 228.755 139.686 225.565 140.491 221.961C140.605 221.464 140.859 221.01 141.224 220.653C141.59 220.297 142.049 220.052 142.549 219.95L143.847 219.673C144.023 219.647 144.186 219.563 144.31 219.435C144.434 219.308 144.512 219.143 144.534 218.966L144.8 216.598C144.813 216.491 144.805 216.382 144.775 216.278C144.745 216.173 144.695 216.076 144.627 215.992C144.559 215.908 144.475 215.838 144.379 215.787C144.284 215.735 144.179 215.704 144.071 215.694ZM84.4869 227.329C81.8853 227.037 79.4288 225.98 77.428 224.292C75.4271 222.604 73.9718 220.36 73.246 217.845C72.5202 215.33 72.5566 212.656 73.3505 210.161C74.1444 207.667 75.6602 205.464 77.7062 203.83C79.7522 202.197 82.2365 201.208 84.845 200.987C87.4535 200.765 90.069 201.323 92.3608 202.588C94.6526 203.853 96.5176 205.77 97.7202 208.095C98.9228 210.42 99.4088 213.05 99.1169 215.652C98.7212 219.134 96.9618 222.318 94.2239 224.507C91.4859 226.695 87.9925 227.71 84.5082 227.329H84.4869ZM101.208 214.46C101.208 214.04 101.208 213.625 101.181 213.21C101.173 213.129 101.185 213.047 101.213 212.971C101.242 212.894 101.289 212.826 101.348 212.77C101.408 212.715 101.479 212.674 101.557 212.65C101.635 212.627 101.718 212.622 101.798 212.635L110.475 213.609C110.557 213.613 110.637 213.637 110.708 213.677C110.779 213.718 110.84 213.774 110.886 213.842C110.932 213.91 110.961 213.988 110.972 214.069C110.983 214.151 110.975 214.233 110.949 214.311C110.832 214.699 110.73 215.098 110.645 215.503C107.688 214.195 104.4 213.83 101.229 214.46H101.208ZM124.084 231.776C121.482 231.484 119.026 230.428 117.025 228.739C115.024 227.051 113.569 224.808 112.843 222.293C112.117 219.777 112.153 217.103 112.947 214.609C113.741 212.114 115.257 209.911 117.303 208.278C119.349 206.645 121.833 205.655 124.442 205.434C127.05 205.213 129.666 205.77 131.958 207.035C134.249 208.301 136.114 210.217 137.317 212.543C138.52 214.868 139.006 217.498 138.714 220.099C138.318 223.58 136.56 226.762 133.824 228.95C131.089 231.139 127.598 232.155 124.116 231.776H124.084Z" fill="#92E3A9" stroke="#263238" stroke-linecap="round" stroke-linejoin="round"/>
<path opacity="0.5" d="M75.7034 221.03C75.7034 221.03 72.0113 213.837 76.6982 207.054C80.917 200.958 88.2001 201.458 91.3229 203.474L81.6724 215.05C82.9113 212.022 84.4738 209.136 86.3327 206.443C86.3327 206.443 78.6613 211.885 75.7034 221.03Z" fill="white"/>
<path opacity="0.5" d="M115.279 225.089C115.279 225.089 111.592 217.897 116.279 211.119C120.493 205.017 127.781 205.517 130.904 207.533L121.248 219.11C122.615 214.577 125.908 210.502 125.908 210.502C125.908 210.502 118.237 215.944 115.279 225.089Z" fill="white"/>
<path opacity="0.2" d="M79.5341 168.692C79.5341 168.692 68.7717 182.05 68.0216 182.891C67.2715 183.732 67.4896 197.255 65.6489 203.346C63.8082 209.438 57.4561 215.694 43.257 246.529L41.3418 186.455L51.8062 144.614L79.5341 168.692Z" fill="black" fill-opacity="0.7"/>
<path d="M87.4343 168.112C87.4343 168.112 80.3268 135.468 74.7088 131.404C71.453 129.053 66.5426 128.212 62.2547 128.622C59.1532 128.914 56.3708 129.867 54.8067 131.383C51.0402 134.995 45.5872 137.107 42.9378 139.453C40.2884 141.799 40.746 149.561 39.3468 156.201C37.9476 162.84 35.3781 163.212 35.1706 169.793C34.9631 176.374 33.7608 196.569 29.7761 202.383C25.7914 208.198 25.9457 212.566 24.4934 218.343C23.041 224.121 11.1934 245.348 11.1934 245.348L43.406 250.04C43.406 250.04 45.7521 236.868 48.4972 226.1C49.7953 220.987 51.1572 216.407 52.4074 214.024C54.7842 209.424 56.7961 204.644 58.4243 199.729C61.8078 195.744 63.2815 187.264 63.4464 179.912L71.6871 174.65C78.1296 172.469 87.4343 168.112 87.4343 168.112Z" fill="white"/>
<path opacity="0.4" d="M87.4342 168.112C87.4342 168.112 80.3266 135.468 74.7087 131.404C71.4529 129.053 66.5425 128.212 62.2546 128.622C52.2211 131.776 49.8164 137.612 48.5184 139.065C46.7894 141.007 45.0338 152.306 46.7415 158.749C48.4492 165.191 47.6406 167.623 46.7415 170.857C44.7305 178.028 52.3488 181.375 53.2691 183.987C54.1895 186.599 54.7906 201.49 51.7636 206.522C50.1676 209.182 46.3797 222.738 48.5024 226.127C49.8005 221.014 51.1624 216.434 52.4126 214.05C54.7894 209.45 56.8013 204.671 58.4295 199.755C61.813 195.771 63.2867 187.291 63.4516 179.938L71.6923 174.677C78.1295 172.469 87.4342 168.112 87.4342 168.112Z" fill="#92E3A9"/>
<path d="M48.6724 172.746C48.6724 172.746 46.7519 170.74 45.1665 170.831" stroke="#263238" stroke-linecap="round" stroke-linejoin="round"/>
<path d="M52.1623 165.378C52.1623 165.378 49.9864 161.388 46.8423 160.675" stroke="#263238" stroke-linecap="round" stroke-linejoin="round"/>
<path d="M47.3477 141.512C47.3477 141.512 51.8218 143.14 52.7049 146.3" stroke="#263238" stroke-linecap="round" stroke-linejoin="round"/>
<path d="M71.6868 174.645C71.6868 174.645 70.5111 173.32 70.4473 172.23" stroke="#263238" stroke-linecap="round" stroke-linejoin="round"/>
<path d="M43.4058 250.04C43.4058 250.04 48.5555 221.456 52.4072 214.05C54.784 209.45 56.7959 204.67 58.4241 199.755C61.8076 195.771 63.2813 187.285 63.4462 179.933L71.6869 174.672C78.1294 172.496 87.4341 168.16 87.4341 168.16C87.4341 168.16 80.3266 135.516 74.7086 131.452C69.0907 127.387 58.5624 127.824 54.7852 131.452C51.008 135.08 45.5657 137.144 42.9163 139.49C40.267 141.836 40.7245 149.598 39.3253 156.238C37.9262 162.877 35.3566 163.249 35.1491 169.83C34.9416 176.411 33.7393 196.606 29.7546 202.421C25.77 208.235 25.9242 212.603 24.4719 218.381C23.0195 224.158 11.1719 245.385 11.1719 245.385" stroke="#263238" stroke-linecap="round" stroke-linejoin="round"/>
<path d="M37.613 68.1045L36.6583 59.5391C36.6427 59.3989 36.6834 59.2582 36.7715 59.148C36.8596 59.0378 36.9879 58.9671 37.1281 58.9514L40.7499 58.5478L41.8219 68.1653L38.2001 68.569C38.0608 68.5845 37.921 68.5444 37.8111 68.4574C37.7011 68.3705 37.63 68.2436 37.613 68.1045Z" fill="#92E3A9" stroke="#263238" stroke-linecap="round" stroke-linejoin="round"/>
<path d="M54.061 45.3698L62.6263 44.4151C62.7665 44.3995 62.9072 44.4402 63.0174 44.5283C63.1276 44.6164 63.1983 44.7447 63.214 44.8849L63.6177 48.5067L53.9948 49.5793L53.5906 45.9522C53.5764 45.8127 53.6179 45.6733 53.706 45.5643C53.7941 45.4552 53.9216 45.3854 54.061 45.3698Z" fill="#92E3A9" stroke="#263238" stroke-linecap="round" stroke-linejoin="round"/>
<path d="M65.5015 44.1106L74.0668 43.1559C74.207 43.1402 74.3477 43.181 74.4579 43.2691C74.5682 43.3572 74.6388 43.4854 74.6545 43.6257L75.0582 47.2474L65.4406 48.3194L65.037 44.6976C65.0213 44.5574 65.062 44.4167 65.1501 44.3065C65.2383 44.1963 65.3665 44.1256 65.5068 44.11L65.5015 44.1106Z" fill="#92E3A9" stroke="#263238" stroke-linecap="round" stroke-linejoin="round"/>
<path d="M50.3216 173.395L37.6121 59.2861C37.2876 56.3772 38.1305 53.4585 39.9558 51.1705C41.781 48.8824 44.4395 47.412 47.3477 47.082L213.332 28.5897C214.776 28.4254 216.239 28.5478 217.637 28.9498C219.034 29.3517 220.338 30.0254 221.475 30.9323C222.612 31.8391 223.558 32.9612 224.26 34.2344C224.963 35.5076 225.407 36.9068 225.568 38.3519L238.277 152.461C238.601 155.374 237.755 158.297 235.924 160.587C234.094 162.876 231.428 164.345 228.515 164.67L62.531 183.157C61.0882 183.318 59.6278 183.194 58.2332 182.79C56.8387 182.387 55.5373 181.712 54.4034 180.806C53.2695 179.899 52.3254 178.778 51.625 177.506C50.9247 176.235 50.4817 174.838 50.3216 173.395Z" fill="#92E3A9" stroke="#263238" stroke-linecap="round" stroke-linejoin="round"/>
<path d="M228.515 163.223L62.2118 181.747C59.7195 182.024 57.2195 181.299 55.2612 179.733C53.3029 178.167 52.0467 175.887 51.7686 173.395L39.0006 58.9722C38.7227 56.4791 39.4466 53.9777 41.013 52.0182C42.5793 50.0588 44.8599 48.8018 47.353 48.5237L213.678 30.0048C216.169 29.7269 218.669 30.4502 220.628 32.0156C222.586 33.581 223.843 35.8602 224.121 38.3519L236.889 152.774C237.025 154.01 236.917 155.261 236.57 156.455C236.223 157.649 235.645 158.764 234.867 159.734C234.089 160.704 233.128 161.512 232.038 162.111C230.948 162.709 229.751 163.087 228.515 163.223Z" fill="#757575" stroke="#263238" stroke-linecap="round" stroke-linejoin="round"/>
<path d="M48.1354 115.875C48.1506 115.96 48.1481 116.047 48.1282 116.131C48.1084 116.216 48.0714 116.295 48.0198 116.364C47.9681 116.433 47.9028 116.491 47.8279 116.535C47.753 116.578 47.67 116.605 47.5841 116.615C47.4982 116.625 47.4112 116.617 47.3285 116.592C47.2457 116.567 47.169 116.525 47.103 116.469C47.0371 116.413 46.9832 116.344 46.9449 116.267C46.9065 116.189 46.8844 116.105 46.8799 116.019C46.8648 115.933 46.8672 115.846 46.8871 115.762C46.907 115.678 46.9439 115.599 46.9955 115.529C47.0472 115.46 47.1125 115.402 47.1874 115.359C47.2624 115.316 47.3453 115.288 47.4312 115.279C47.5171 115.269 47.6041 115.277 47.6869 115.302C47.7696 115.327 47.8463 115.369 47.9123 115.424C47.9783 115.48 48.0321 115.549 48.0705 115.627C48.1089 115.704 48.131 115.789 48.1354 115.875Z" fill="#999999" stroke="#263238" stroke-linecap="round" stroke-linejoin="round"/>
<path d="M49.348 121.53C49.3749 121.767 49.3308 122.007 49.2213 122.22C49.1118 122.432 48.9418 122.607 48.7328 122.723C48.5238 122.838 48.2852 122.889 48.0471 122.87C47.8091 122.85 47.5823 122.759 47.3955 122.611C47.2087 122.462 47.0702 122.261 46.9976 122.033C46.925 121.806 46.9215 121.562 46.9875 121.332C47.0536 121.103 47.1863 120.898 47.3688 120.744C47.5512 120.589 47.7753 120.493 48.0127 120.466C48.3309 120.43 48.6502 120.522 48.9006 120.722C49.151 120.921 49.312 121.212 49.348 121.53Z" fill="#263238"/>
<path d="M47.7894 107.554C47.8163 107.792 47.7722 108.032 47.6627 108.244C47.5532 108.456 47.3832 108.631 47.1742 108.747C46.9652 108.863 46.7266 108.914 46.4885 108.894C46.2505 108.874 46.0237 108.784 45.8369 108.635C45.6501 108.486 45.5116 108.285 45.439 108.058C45.3664 107.83 45.3629 107.586 45.4289 107.356C45.495 107.127 45.6277 106.922 45.8102 106.768C45.9926 106.614 46.2167 106.517 46.4541 106.49C46.772 106.456 47.0906 106.548 47.3407 106.748C47.5907 106.947 47.752 107.237 47.7894 107.554Z" fill="#263238"/>
<path d="M49.4757 125.552C49.5011 125.784 49.4333 126.017 49.2871 126.199C49.1409 126.381 48.9284 126.498 48.6963 126.523C48.4642 126.548 48.2316 126.48 48.0495 126.334C47.8674 126.188 47.7508 125.976 47.7254 125.744C47.7129 125.629 47.723 125.512 47.7554 125.401C47.7878 125.29 47.8417 125.187 47.914 125.097C48.0602 124.915 48.2727 124.798 48.5048 124.773C48.7369 124.747 48.9696 124.815 49.1517 124.961C49.3338 125.107 49.4503 125.32 49.4757 125.552Z" fill="#263238"/>
<path d="M57.9881 173.964L45.1084 58.6104C44.9724 57.3802 45.3302 56.1464 46.1033 55.1798C46.8763 54.2133 48.0014 53.5931 49.2314 53.4554L216.476 34.8354C217.707 34.6993 218.941 35.057 219.909 35.8299C220.876 36.6029 221.498 37.7279 221.637 38.9584L234.484 154.328C234.552 154.937 234.5 155.554 234.329 156.143C234.159 156.732 233.874 157.281 233.491 157.76C233.108 158.239 232.635 158.637 232.098 158.933C231.561 159.229 230.971 159.415 230.361 159.483L63.1166 178.103C61.8876 178.234 60.6569 177.872 59.6952 177.096C58.7334 176.319 58.1194 175.193 57.9881 173.964Z" fill="white"/>
<path opacity="0.3" d="M216.758 34.7981L48.9439 53.4873C48.371 53.5501 47.816 53.7255 47.311 54.0033C46.806 54.2811 46.3608 54.6559 46.0009 55.1062C45.6411 55.5565 45.3737 56.0734 45.2141 56.6273C45.0545 57.1812 45.0059 57.7611 45.071 58.3338L57.9879 174.257C58.0508 174.83 58.2261 175.384 58.504 175.89C58.7818 176.395 59.1566 176.84 59.6069 177.2C60.0571 177.559 60.5741 177.827 61.1279 177.986C61.6818 178.146 62.2617 178.195 62.8344 178.13L230.638 159.44C231.211 159.377 231.766 159.201 232.27 158.923C232.775 158.645 233.221 158.27 233.581 157.82C233.941 157.37 234.209 156.854 234.369 156.3C234.53 155.747 234.58 155.167 234.516 154.594L221.604 38.6711C221.475 37.515 220.892 36.4578 219.983 35.7316C219.074 35.0053 217.914 34.6696 216.758 34.7981Z" fill="#92E3A9"/>
<path d="M96.2919 63.175H96.2546L96.3025 69.9474L93.5893 70.2453L90.791 57.8444L92.7115 57.6316L94.8395 67.415H94.8768L94.6959 57.4081L96.5951 57.2006L98.6753 67.0692H98.7125L98.6061 56.9612L100.33 56.7644V69.4845L97.707 69.7718L96.2919 63.175Z" fill="#263238"/>
<path d="M103.884 61.7439L106.597 61.446L106.794 63.2389L104.086 63.5421L104.495 67.2182L107.906 66.8405L108.102 68.6333L102.724 69.2345L101.325 56.674L106.703 56.0728L106.905 57.8657L103.495 58.2487L103.884 61.7439Z" fill="#263238"/>
<path d="M118.498 67.4736L116.503 67.697L115.907 65.436L113.486 65.7073L113.401 68.0215L111.587 68.2237L112.199 55.4557L115.087 55.1365L118.498 67.4736ZM113.55 63.9943L115.449 63.7815L113.811 57.5358H113.773L113.55 63.9943Z" fill="#263238"/>
<path d="M123.541 66.915C123.322 66.437 123.202 65.9193 123.19 65.3935L122.967 63.4197C122.839 62.2493 122.397 61.8663 121.498 61.9621L120.817 62.0419L121.387 67.1544L119.413 67.3725L118.014 54.796L120.993 54.4662C123.036 54.2374 124.02 55.0886 124.238 57.0304L124.35 58.0146C124.493 59.3074 124.169 60.1799 123.339 60.6746V60.7119C124.371 61.0151 124.797 61.9089 124.935 63.2176L125.153 65.1594C125.175 65.6807 125.306 66.1916 125.536 66.6596L123.541 66.915ZM120.184 56.392L120.615 60.249L121.387 60.1639C122.126 60.0841 122.536 59.7117 122.451 58.7062L122.312 57.4666C122.211 56.5676 121.865 56.2111 121.163 56.2856L120.184 56.392Z" fill="#263238"/>
<path d="M127.792 59.0839L130.5 58.7807L130.702 60.5735L127.989 60.8768L128.398 64.5582L131.808 64.1752L132.01 65.968L126.616 66.5692L125.217 54.0086L130.601 53.4128L130.797 55.2056L127.393 55.5834L127.792 59.0839Z" fill="#263238"/>
<path d="M137.985 65.303L136.011 65.5265L134.596 52.9659L136.569 52.7425L137.171 58.1263L139.416 57.8763L138.852 52.4978L140.863 52.269L142.262 64.8295L140.251 65.053L139.65 59.6745L137.41 59.9192L137.985 65.303Z" fill="#263238"/>
<path d="M142.278 52.136L144.252 51.9179L145.651 64.4784L143.677 64.6965L142.278 52.136Z" fill="#263238"/>
<path d="M151.21 63.84C150.993 63.3614 150.873 62.844 150.859 62.3185L150.641 60.3448C150.513 59.1797 150.066 58.7913 149.173 58.8924L148.492 58.9669L149.061 64.0847L147.087 64.3029L145.688 51.7423L148.667 51.4125C150.71 51.1837 151.694 52.0349 151.912 53.9714L152.019 54.9609C152.162 56.2537 151.843 57.1209 151.013 57.6209V57.6582C152.045 57.9614 152.476 58.8605 152.609 60.1692L152.827 62.1057C152.845 62.6275 152.976 63.1393 153.21 63.6059L151.21 63.84ZM147.859 53.3171L148.289 57.1741L149.061 57.0889C149.795 57.0038 150.21 56.6314 150.098 55.6259L149.96 54.3917C149.859 53.4926 149.513 53.1309 148.811 53.2107L147.859 53.3171Z" fill="#263238"/>
<path d="M152.902 50.9284L154.876 50.7102L156.275 63.2654L154.301 63.4889L152.902 50.9284Z" fill="#263238"/>
<path d="M158.488 53.8118H158.456L159.467 62.909L157.69 63.1058L156.291 50.54L158.77 50.2634L161.595 57.5571H161.632L160.797 50.0399L162.553 49.8431L163.952 62.4036L161.925 62.627L158.488 53.8118Z" fill="#263238"/>
<path d="M167.58 54.929L170.341 54.6204L170.788 58.6051C171.011 60.6108 170.134 61.8716 168.197 62.0897C166.261 62.3078 165.127 61.2651 164.904 59.2595L164.175 52.7265C163.952 50.7156 164.83 49.4547 166.766 49.2419C168.702 49.0291 169.836 50.0612 170.059 52.0722L170.197 53.2904L168.33 53.4979L168.155 52.136C168.053 51.2422 167.623 50.9443 166.989 51.0135C166.356 51.0826 166.005 51.4657 166.106 52.3648L166.862 59.1478C166.963 60.0469 167.394 60.3235 168.022 60.2543C168.649 60.1852 169.006 59.8181 168.91 58.919L168.649 56.6048L167.756 56.7059L167.58 54.929Z" fill="#263238"/>
<path d="M172.315 58.6636L171.554 54.1523L170.974 48.944L172.948 48.7206L173.528 53.9607L173.783 58.5306L172.315 58.6636ZM174.097 59.3552L174.31 61.2598L172.405 61.4726L172.198 59.568L174.097 59.3552Z" fill="#263238"/>
<path d="M158.233 157.233L129.451 160.425C128.32 160.551 127.175 160.453 126.081 160.137C124.987 159.821 123.967 159.292 123.077 158.581C122.188 157.87 121.447 156.991 120.898 155.994C120.349 154.996 120.001 153.901 119.875 152.769C119.749 151.638 119.846 150.493 120.162 149.4C120.478 148.306 121.007 147.286 121.717 146.397C122.428 145.507 123.306 144.767 124.303 144.217C125.299 143.667 126.395 143.32 127.526 143.193L156.312 140.001C157.444 139.874 158.589 139.971 159.683 140.287C160.777 140.603 161.798 141.132 162.688 141.843C163.577 142.554 164.318 143.434 164.867 144.431C165.416 145.429 165.763 146.525 165.888 147.657C166.015 148.788 165.918 149.934 165.602 151.028C165.286 152.122 164.757 153.143 164.046 154.032C163.335 154.922 162.456 155.662 161.458 156.211C160.461 156.76 159.365 157.108 158.233 157.233Z" fill="#92E3A9" stroke="#263238" stroke-linecap="round" stroke-linejoin="round"/>
<path d="M137.256 154.812L135.963 154.956L135.58 153.503L134.011 153.679L133.952 155.179L132.776 155.312L133.175 147.023L135.048 146.811L137.256 154.812ZM134.064 152.556L135.298 152.418L134.234 148.364L134.064 152.556Z" fill="#263238"/>
<path d="M140.98 148.183L141.097 149.247C141.246 150.551 140.693 151.327 139.416 151.471L138.809 151.535L139.15 154.599L137.873 154.743L136.963 146.598L138.852 146.385C140.107 146.236 140.815 146.88 140.98 148.183ZM138.373 147.614L138.682 150.37L139.288 150.301C139.693 150.258 139.895 150.045 139.82 149.465L139.687 148.242C139.623 147.662 139.379 147.497 138.974 147.545L138.373 147.614Z" fill="#263238"/>
<path d="M145.348 147.694L145.465 148.758C145.608 150.061 145.06 150.838 143.778 150.982L143.177 151.051L143.518 154.11L142.235 154.253L141.331 146.108L143.214 145.896C144.496 145.768 145.199 146.39 145.348 147.694ZM142.741 147.125L143.044 149.88L143.651 149.811C144.06 149.769 144.257 149.556 144.183 148.976L144.05 147.752C143.98 147.172 143.741 147.013 143.331 147.055L142.741 147.125Z" fill="#263238"/>
<path d="M145.715 145.614L146.997 145.47L147.774 152.45L149.902 152.216L150.029 153.381L146.646 153.759L145.715 145.614Z" fill="#263238"/>
<path d="M150.742 150.556L148.519 145.289L149.859 145.14L151.237 148.747L151.769 144.927L152.993 144.794L151.982 150.418L152.28 153.12L151.003 153.259L150.742 150.556Z" fill="#263238"/>
<path d="M162.033 164.808L127.434 168.664L127.553 169.732L162.152 165.876L162.033 164.808Z" fill="#999999" stroke="#263238" stroke-linecap="round" stroke-linejoin="round"/>
<path d="M211.81 127.914L74.1659 143.241C74.1659 143.241 68.1862 130.388 71.8038 122.046C75.4214 113.704 86.3753 118.46 91.0143 110.72C95.6533 102.979 90.2801 97.8508 95.3873 87.248C100.495 76.6452 115.13 70.9901 126.057 75.6398C136.984 80.2894 140.682 87.3012 147.63 85.3381C154.578 83.375 158.536 74.3523 172.304 75.012C186.072 75.6717 189.03 94.9514 188.232 104.464C187.434 113.976 214.885 105.485 211.81 127.914Z" fill="white"/>
<path d="M170.676 86.2691L170.549 85.12L161.93 86.0829L162.186 88.4131L162.648 92.552L171.267 91.5944L170.676 86.2691Z" fill="white"/>
<path opacity="0.2" d="M162.656 92.4743L168.086 91.8691L167.375 85.4821L161.945 86.0873L162.656 92.4743Z" fill="black"/>
<path d="M170.676 86.2691L170.549 85.12L161.93 86.0829L162.186 88.4131L162.648 92.552L171.267 91.5944L170.676 86.2691Z" stroke="#263238" stroke-linecap="round" stroke-linejoin="round"/>
<path d="M167.383 85.4711L167.447 86.0404" stroke="#263238" stroke-linecap="round" stroke-linejoin="round"/>
<path d="M163.143 99.5478L162.159 90.706L166.771 87.2161L171.341 86.7054L172.639 98.3987L163.143 99.5478Z" fill="#263238"/>
<path opacity="0.2" d="M163.143 99.5478L168.277 98.9786L166.963 87.1948L162.159 90.706L163.143 99.5478Z" fill="black"/>
<path d="M163.143 99.5478L162.159 90.706L166.771 87.2161L171.341 86.7054L172.639 98.3987L163.143 99.5478Z" stroke="#263238" stroke-linecap="round" stroke-linejoin="round"/>
<path opacity="0.2" d="M167.181 89.1526L167.452 91.6157" stroke="white" stroke-linecap="round" stroke-linejoin="round"/>
<path opacity="0.2" d="M167.617 93.084L168.197 98.287" stroke="white" stroke-linecap="round" stroke-linejoin="round"/>
<path d="M127.822 125.929L126.141 126.116C125.886 126.145 125.63 126.071 125.429 125.91C125.229 125.75 125.1 125.516 125.071 125.261L124.665 121.618L128.266 121.217L128.673 124.87C128.699 125.123 128.624 125.376 128.464 125.574C128.305 125.772 128.075 125.899 127.822 125.929Z" fill="#999999" stroke="#263238" stroke-linecap="round" stroke-linejoin="round"/>
<path d="M126.435 131.344L128.687 131.093L128.109 125.906L125.857 126.157L126.435 131.344Z" fill="#757575" stroke="#263238" stroke-linecap="round" stroke-linejoin="round"/>
<path d="M124.222 121.668L128.856 121.147L130.127 119.019L122.509 119.87L124.222 121.668Z" fill="#757575" stroke="#263238" stroke-linecap="round" stroke-linejoin="round"/>
<path d="M137.256 113.364L130.872 114.071L128.744 107.374H127.839L129.967 114.348C129.79 114.369 129.629 114.459 129.517 114.599C129.406 114.738 129.354 114.915 129.372 115.093L129.526 116.455C129.58 116.9 129.808 117.306 130.16 117.584C130.511 117.863 130.958 117.992 131.404 117.944L136.873 117.338C137.084 117.313 137.276 117.205 137.409 117.039C137.541 116.873 137.603 116.661 137.58 116.449L137.256 113.364Z" fill="#999999" stroke="#263238" stroke-linecap="round" stroke-linejoin="round"/>
<path d="M137.788 116.715L137.464 116.747C137.242 116.773 137.019 116.717 136.835 116.591C136.652 116.465 136.52 116.277 136.463 116.061L134.596 108.709C134.506 108.364 134.306 108.059 134.027 107.838C133.748 107.617 133.404 107.493 133.048 107.485L127.818 107.352C127.624 107.346 127.439 107.27 127.296 107.138C127.154 107.006 127.063 106.827 127.042 106.634C127.018 106.422 127.079 106.21 127.212 106.043C127.344 105.877 127.538 105.77 127.749 105.746L128.404 105.676L133.591 105.895C134.209 105.919 134.803 106.144 135.283 106.536C135.763 106.927 136.102 107.464 136.251 108.065L138.224 116.088C138.238 116.158 138.238 116.23 138.223 116.3C138.208 116.369 138.18 116.435 138.139 116.494C138.099 116.553 138.046 116.602 137.986 116.64C137.926 116.678 137.858 116.704 137.788 116.715Z" fill="#BFBFBF"/>
<path d="M137.788 116.715L137.464 116.747C137.242 116.773 137.019 116.717 136.835 116.591C136.652 116.465 136.52 116.277 136.463 116.061L134.596 108.709C134.506 108.364 134.306 108.059 134.027 107.838C133.748 107.617 133.404 107.493 133.048 107.485L127.818 107.352C127.624 107.346 127.439 107.27 127.296 107.138C127.154 107.006 127.063 106.827 127.042 106.634V106.634C127.018 106.422 127.079 106.21 127.212 106.043C127.344 105.877 127.538 105.77 127.749 105.746L128.404 105.676L133.591 105.895C134.209 105.919 134.803 106.144 135.283 106.536C135.763 106.927 136.102 107.464 136.251 108.065L138.224 116.088C138.238 116.158 138.238 116.23 138.223 116.3C138.208 116.369 138.18 116.435 138.139 116.494C138.099 116.553 138.046 116.602 137.986 116.64C137.926 116.678 137.858 116.704 137.788 116.715" stroke="#263238" stroke-linecap="round" stroke-linejoin="round"/>
<path d="M106.192 93.499L113.481 117.311L129.85 115.487L130.202 112.89L126.201 99.6915L123.541 90.823C123.371 90.2655 123.013 89.784 122.528 89.4601C122.043 89.1363 121.461 88.99 120.881 89.0462L108.182 90.44C107.802 90.4799 107.437 90.6123 107.12 90.8256C106.803 91.0389 106.543 91.3266 106.363 91.6636C106.215 91.9432 106.123 92.2493 106.094 92.5643C106.065 92.8793 106.098 93.197 106.192 93.499Z" fill="#92E3A9"/>
<path opacity="0.2" d="M106.192 93.499L113.481 117.311L129.85 115.487L130.201 112.89L126.201 99.6915L112.539 101.213L109.964 92.8127C109.838 92.4005 109.573 92.0446 109.214 91.806C108.855 91.5673 108.425 91.4606 107.996 91.504L106.4 91.6796C106.093 92.2348 106.018 92.889 106.192 93.499Z" fill="black"/>
<path d="M106.192 93.499L113.481 117.311L129.85 115.487L130.202 112.89L126.201 99.6915L123.541 90.823C123.371 90.2655 123.013 89.784 122.528 89.4601C122.043 89.1363 121.461 88.99 120.881 89.0462L108.182 90.44C107.802 90.4799 107.437 90.6123 107.12 90.8256C106.803 91.0389 106.543 91.3266 106.363 91.6636C106.215 91.9432 106.123 92.2493 106.094 92.5643C106.065 92.8793 106.098 93.197 106.192 93.499V93.499Z" stroke="#263238" stroke-linecap="round" stroke-linejoin="round"/>
<path d="M119.114 135.841C122.471 133.606 132.883 132.447 136.67 133.888L138.266 133.245C134.239 131.165 128.69 131.079 128.69 131.079L126.249 131.351C126.249 131.351 120.881 132.649 117.407 135.564L119.114 135.841Z" fill="#999999" stroke="#263238" stroke-linecap="round" stroke-linejoin="round"/>
<path d="M136.554 134.862C136.595 135.237 136.784 135.579 137.078 135.815C137.373 136.05 137.748 136.159 138.123 136.118C138.498 136.076 138.84 135.887 139.076 135.593C139.311 135.299 139.42 134.923 139.379 134.548C139.358 134.363 139.301 134.183 139.211 134.02C139.121 133.856 139 133.712 138.854 133.595C138.708 133.479 138.541 133.392 138.362 133.34C138.182 133.288 137.995 133.272 137.809 133.293C137.624 133.313 137.444 133.37 137.281 133.46C137.117 133.55 136.973 133.672 136.856 133.817C136.74 133.963 136.653 134.13 136.601 134.31C136.549 134.489 136.533 134.677 136.554 134.862Z" fill="#BFBFBF" stroke="#263238" stroke-linecap="round" stroke-linejoin="round"/>
<path d="M116.598 137.086C116.634 137.363 116.752 137.623 116.935 137.834C117.119 138.045 117.36 138.197 117.63 138.272C117.9 138.346 118.185 138.339 118.451 138.251C118.716 138.164 118.95 138 119.123 137.78C119.296 137.56 119.4 137.295 119.423 137.016C119.445 136.737 119.385 136.458 119.249 136.213C119.114 135.969 118.909 135.77 118.661 135.641C118.412 135.512 118.132 135.46 117.854 135.49C117.666 135.511 117.484 135.569 117.319 135.661C117.154 135.753 117.009 135.877 116.892 136.025C116.775 136.174 116.689 136.344 116.639 136.526C116.588 136.708 116.574 136.898 116.598 137.086Z" fill="#BFBFBF" stroke="#263238" stroke-linecap="round" stroke-linejoin="round"/>
<path d="M119.386 120.918L135.404 119.136C136.092 119.059 136.757 118.848 137.363 118.514C137.968 118.18 138.502 117.729 138.933 117.189C139.365 116.648 139.685 116.028 139.876 115.364C140.068 114.699 140.126 114.003 140.049 113.316C140.028 113.111 139.966 112.912 139.867 112.731C139.769 112.551 139.635 112.391 139.474 112.262C139.313 112.134 139.128 112.038 138.93 111.982C138.732 111.925 138.524 111.908 138.32 111.933L114.912 114.54C114.709 114.562 114.514 114.624 114.335 114.723C114.157 114.821 114 114.953 113.873 115.113C113.746 115.272 113.651 115.454 113.595 115.65C113.539 115.846 113.522 116.05 113.545 116.253C113.618 116.944 113.828 117.614 114.162 118.224C114.496 118.834 114.948 119.371 115.491 119.805C116.034 120.239 116.658 120.561 117.327 120.752C117.995 120.943 118.695 121 119.386 120.918Z" fill="#92E3A9"/>
<path opacity="0.2" d="M113.561 116.162L113.609 116.593C113.754 117.895 114.411 119.086 115.435 119.904C116.458 120.722 117.765 121.1 119.067 120.956L135.719 119.099C136.363 119.028 136.988 118.831 137.556 118.518C138.125 118.206 138.626 117.784 139.031 117.277C139.436 116.771 139.738 116.189 139.918 115.566C140.098 114.943 140.153 114.29 140.081 113.646L140.033 113.21C140.004 112.932 139.895 112.67 139.719 112.453C139.544 112.237 139.309 112.076 139.044 111.991L139.134 112.795C139.185 113.259 139.049 113.725 138.757 114.09C138.465 114.455 138.04 114.69 137.575 114.742L122.802 116.391C122.336 116.442 121.87 116.306 121.504 116.014C121.138 115.722 120.903 115.297 120.849 114.832L120.748 113.891L114.854 114.545C114.468 114.589 114.116 114.784 113.874 115.087C113.631 115.39 113.519 115.777 113.561 116.162Z" fill="black"/>
<path d="M119.386 120.918L135.404 119.136C136.092 119.059 136.757 118.848 137.363 118.514C137.968 118.18 138.502 117.729 138.933 117.189C139.365 116.648 139.685 116.028 139.876 115.364C140.068 114.699 140.126 114.003 140.049 113.316V113.316C140.028 113.111 139.966 112.912 139.867 112.731C139.769 112.551 139.635 112.391 139.474 112.262C139.313 112.134 139.128 112.038 138.93 111.982C138.732 111.925 138.524 111.908 138.32 111.933L114.912 114.54C114.709 114.562 114.514 114.624 114.335 114.723C114.157 114.821 114 114.953 113.873 115.113C113.746 115.272 113.651 115.454 113.595 115.65C113.539 115.846 113.522 116.05 113.545 116.253C113.618 116.944 113.828 117.614 114.162 118.224C114.496 118.834 114.948 119.371 115.491 119.805C116.034 120.239 116.658 120.561 117.327 120.752C117.995 120.943 118.695 121 119.386 120.918V120.918Z" stroke="#263238" stroke-linecap="round" stroke-linejoin="round"/>
<path d="M119.343 115.359L112.991 116.066L110.831 109.369L109.932 109.342L112.06 116.322C111.972 116.331 111.886 116.358 111.809 116.4C111.731 116.443 111.662 116.5 111.607 116.57C111.551 116.639 111.51 116.719 111.486 116.804C111.461 116.889 111.454 116.978 111.464 117.067L111.613 118.429C111.665 118.878 111.893 119.29 112.247 119.572C112.6 119.855 113.051 119.987 113.502 119.939L118.971 119.328C119.075 119.316 119.177 119.285 119.269 119.234C119.361 119.183 119.442 119.115 119.508 119.033C119.574 118.951 119.623 118.857 119.652 118.756C119.681 118.655 119.69 118.549 119.678 118.444L119.343 115.359Z" fill="#999999" stroke="#263238" stroke-linecap="round" stroke-linejoin="round"/>
<path d="M119.902 118.705L119.572 118.742C119.351 118.767 119.128 118.711 118.945 118.583C118.762 118.456 118.632 118.267 118.578 118.051L116.71 110.704C116.619 110.36 116.419 110.054 116.14 109.833C115.861 109.611 115.518 109.486 115.162 109.475L109.933 109.342C109.738 109.337 109.552 109.262 109.409 109.131C109.265 109 109.173 108.822 109.15 108.629C109.128 108.417 109.19 108.204 109.324 108.038C109.457 107.872 109.651 107.765 109.863 107.741L110.512 107.666L115.705 107.884C116.324 107.91 116.918 108.136 117.398 108.529C117.877 108.921 118.217 109.458 118.365 110.06L120.333 118.104C120.351 118.174 120.354 118.246 120.341 118.317C120.329 118.388 120.301 118.455 120.26 118.514C120.219 118.573 120.166 118.622 120.104 118.659C120.043 118.696 119.974 118.719 119.902 118.726" fill="#BFBFBF"/>
<path d="M119.902 118.705L119.572 118.742C119.351 118.767 119.128 118.711 118.945 118.583C118.762 118.456 118.632 118.267 118.578 118.051L116.71 110.704C116.619 110.36 116.419 110.054 116.14 109.833C115.861 109.611 115.518 109.486 115.162 109.475L109.933 109.342C109.738 109.337 109.552 109.262 109.409 109.131C109.265 109 109.173 108.822 109.15 108.629V108.629C109.128 108.417 109.19 108.204 109.324 108.038C109.457 107.872 109.651 107.765 109.863 107.741L110.512 107.666L115.705 107.884C116.324 107.91 116.918 108.136 117.398 108.529C117.877 108.921 118.217 109.458 118.365 110.06L120.333 118.104C120.351 118.174 120.354 118.246 120.341 118.317C120.329 118.388 120.301 118.455 120.26 118.514C120.219 118.573 120.166 118.622 120.104 118.659C120.043 118.696 119.974 118.719 119.902 118.726V118.726" stroke="#263238" stroke-linecap="round" stroke-linejoin="round"/>
<path d="M131.271 102.038L125.35 102.676L125.387 102.995C125.393 103.073 125.414 103.149 125.45 103.218C125.486 103.287 125.536 103.348 125.596 103.398C125.656 103.448 125.725 103.485 125.8 103.507C125.875 103.529 125.953 103.536 126.031 103.527H126.185L145.523 101.373C145.573 101.367 145.621 101.352 145.665 101.328C145.709 101.304 145.747 101.272 145.778 101.233C145.81 101.193 145.833 101.149 145.846 101.1C145.86 101.052 145.864 101.002 145.858 100.952L145.8 100.42L131.271 102.038Z" fill="#999999" stroke="#263238" stroke-linecap="round" stroke-linejoin="round"/>
<path d="M149.258 90.0463L148.295 99.6223C148.275 99.8221 148.187 100.009 148.046 100.152C147.904 100.294 147.718 100.383 147.518 100.404L132.596 102.07C132.507 102.079 132.417 102.068 132.333 102.038C132.249 102.008 132.173 101.96 132.11 101.897C132.048 101.833 132 101.757 131.97 101.672C131.941 101.588 131.931 101.498 131.941 101.41L133.005 91.8338C133.027 91.6367 133.115 91.4529 133.256 91.3127C133.396 91.1725 133.58 91.0842 133.777 91.0624L148.604 89.376C148.693 89.3653 148.785 89.3754 148.87 89.4056C148.955 89.4357 149.033 89.4851 149.096 89.5499C149.159 89.6147 149.207 89.6931 149.235 89.7792C149.263 89.8653 149.271 89.9567 149.258 90.0463Z" fill="#BFBFBF" stroke="#263238" stroke-linecap="round" stroke-linejoin="round"/>
<path d="M141.054 94.6056L142.209 94.4779L142.65 95.478L141.937 96.6006L140.783 96.7282L140.341 95.7334L141.054 94.6056Z" fill="white" stroke="#263238" stroke-linecap="round" stroke-linejoin="round"/>
<path d="M164.016 87.1735L163.888 86.0191L155.27 86.9873L155.53 89.3175L155.988 93.4564L164.606 92.4935L164.016 87.1735Z" fill="white"/>
<path opacity="0.2" d="M155.94 93.0697L161.396 92.4615L160.719 86.3864L155.262 86.9946L155.94 93.0697Z" fill="black"/>
<path d="M164.016 87.1735L163.888 86.0191L155.27 86.9873L155.53 89.3175L155.988 93.4564L164.606 92.4935L164.016 87.1735Z" stroke="#263238" stroke-linecap="round" stroke-linejoin="round"/>
<path d="M160.722 86.3702L160.786 86.9448" stroke="#263238" stroke-linecap="round" stroke-linejoin="round"/>
<path d="M156.482 100.452L155.498 91.6051L160.11 88.1151L164.68 87.6097L165.984 99.3031L156.482 100.452Z" fill="#92E3A9"/>
<path opacity="0.2" d="M160.11 88.1152L161.414 99.8564L156.477 100.404L155.498 91.6051L160.11 88.1152Z" fill="black"/>
<path d="M156.482 100.452L155.498 91.6051L160.11 88.1151L164.68 87.6097L165.984 99.3031L156.482 100.452Z" stroke="#263238" stroke-linecap="round" stroke-linejoin="round"/>
<path d="M160.52 90.0516L160.797 92.5148" stroke="#263238" stroke-linecap="round" stroke-linejoin="round"/>
<path d="M160.957 93.9884L161.536 99.1914" stroke="#263238" stroke-linecap="round" stroke-linejoin="round"/>
<path d="M154.332 102.178L152.064 102.431L155.601 134.165L157.869 133.912L154.332 102.178Z" fill="#92E3A9"/>
<path opacity="0.2" d="M154.332 102.178L152.064 102.431L155.601 134.165L157.869 133.912L154.332 102.178Z" fill="black"/>
<path d="M154.332 102.178L152.064 102.431L155.601 134.165L157.869 133.912L154.332 102.178Z" stroke="#263238" stroke-linecap="round" stroke-linejoin="round"/>
<path d="M140.411 103.74L174.118 99.9841L177.651 131.718L175.384 131.968L172.059 102.096L140.618 105.602L140.411 103.74Z" fill="#92E3A9" stroke="#263238" stroke-linecap="round" stroke-linejoin="round"/>
<path d="M167.474 98.9361L118.109 104.437L118.301 106.187L175.071 99.8671L174.874 98.1115L170.73 98.5743L167.474 98.9361Z" fill="#92E3A9"/>
<path opacity="0.6" d="M167.474 98.9361L118.109 104.437L118.301 106.187L175.071 99.8671L174.874 98.1115L170.73 98.5743L167.474 98.9361Z" fill="white"/>
<path d="M167.474 98.9361L118.109 104.437L118.301 106.187L175.071 99.8671L174.874 98.1115L170.73 98.5743L167.474 98.9361Z" stroke="#263238" stroke-linecap="round" stroke-linejoin="round"/>
<path d="M122.796 137.825L119.258 106.091L141.815 103.58L145.353 135.314L143.081 135.564L139.756 105.698L121.732 107.703L125.062 137.575L122.796 137.825Z" fill="#92E3A9"/>
<path opacity="0.2" d="M122.796 137.825L119.258 106.091L141.815 103.58L145.353 135.314L143.081 135.564L139.756 105.698L121.732 107.703L125.062 137.575L122.796 137.825Z" fill="white"/>
<path d="M122.796 137.825L119.258 106.091L141.815 103.58L145.353 135.314L143.081 135.564L139.756 105.698L121.732 107.703L125.062 137.575L122.796 137.825Z" stroke="#263238" stroke-linecap="round" stroke-linejoin="round"/>
<path d="M176.469 108.257C174.657 106.809 172.464 105.919 170.155 105.695C167.847 105.471 165.523 105.923 163.467 106.996C161.41 108.068 159.71 109.716 158.573 111.737C157.435 113.758 156.91 116.067 157.061 118.381C157.212 120.696 158.032 122.916 159.422 124.773C160.811 126.63 162.711 128.043 164.889 128.84C167.067 129.637 169.43 129.784 171.69 129.262C173.95 128.741 176.01 127.574 177.619 125.903L179.422 127.345L180.795 125.626L178.991 124.185C180.631 121.693 181.282 118.679 180.815 115.732C180.349 112.786 178.799 110.12 176.469 108.257ZM177.156 124.142C175.858 125.756 174.111 126.95 172.136 127.571C170.16 128.192 168.044 128.213 166.057 127.632C164.069 127.051 162.298 125.893 160.968 124.305C159.639 122.718 158.81 120.771 158.586 118.712C158.363 116.653 158.755 114.574 159.714 112.738C160.672 110.902 162.153 109.392 163.97 108.398C165.787 107.404 167.858 106.971 169.921 107.154C171.984 107.338 173.946 108.129 175.56 109.427C176.631 110.288 177.523 111.352 178.183 112.557C178.844 113.763 179.26 115.087 179.408 116.454C179.556 117.82 179.434 119.203 179.047 120.522C178.661 121.841 178.018 123.072 177.156 124.142Z" fill="#757575" stroke="#263238" stroke-linecap="round" stroke-linejoin="round"/>
<path d="M194.483 137.98C194.346 138.153 194.176 138.297 193.982 138.404C193.789 138.511 193.577 138.579 193.357 138.604C193.138 138.629 192.915 138.61 192.703 138.548C192.491 138.487 192.293 138.384 192.121 138.246L179.012 127.765C178.975 127.736 178.945 127.699 178.922 127.658C178.899 127.616 178.885 127.571 178.88 127.524C178.875 127.477 178.879 127.429 178.893 127.384C178.907 127.338 178.929 127.296 178.959 127.26L180.608 125.196C180.668 125.121 180.754 125.073 180.849 125.062C180.944 125.052 181.039 125.078 181.114 125.137L194.222 135.617C194.57 135.896 194.793 136.302 194.841 136.745C194.89 137.187 194.761 137.632 194.483 137.98Z" fill="#999999" stroke="#263238" stroke-linecap="round" stroke-linejoin="round"/>
<path d="M106.442 139.65L104.905 139.82L97.9834 112.885L99.4677 112.502L106.442 139.65Z" fill="#999999" stroke="#263238" stroke-linecap="round" stroke-linejoin="round"/>
<path d="M105.465 100.458L87.0752 105.183L90.0368 116.71L108.427 111.985L105.465 100.458Z" fill="#263238"/>
<path d="M93.2491 111.321L93.3661 111.773C93.4131 111.881 93.4347 111.998 93.4291 112.116C93.4234 112.233 93.3908 112.348 93.3337 112.451C93.2766 112.554 93.1965 112.642 93.0997 112.709C93.0029 112.776 92.892 112.82 92.7756 112.837L92.5149 112.901L92.8501 114.204L92.3181 114.348L91.4243 110.879L92.2276 110.672C92.3375 110.633 92.455 110.619 92.5711 110.632C92.6871 110.645 92.7987 110.684 92.8972 110.746C92.9958 110.809 93.0787 110.893 93.1397 110.993C93.2007 111.093 93.2381 111.205 93.2491 111.321ZM92.0893 111.236L92.3872 112.406L92.6479 112.342C92.8181 112.295 92.8926 112.193 92.8288 111.943L92.6958 111.411C92.632 111.161 92.5202 111.108 92.3447 111.151L92.0893 111.236Z" fill="#92E3A9"/>
<path d="M93.4512 111.241C93.4136 111.13 93.3993 111.011 93.4094 110.894C93.4195 110.777 93.4536 110.663 93.5098 110.559C93.5659 110.456 93.6428 110.365 93.7357 110.292C93.8285 110.22 93.9353 110.167 94.0494 110.138C94.1635 110.108 94.2824 110.103 94.3987 110.122C94.515 110.14 94.6262 110.183 94.7253 110.246C94.8245 110.31 94.9094 110.393 94.9749 110.491C95.0403 110.589 95.0849 110.7 95.1058 110.816L95.5686 112.619C95.6063 112.731 95.6205 112.849 95.6104 112.966C95.6004 113.084 95.5662 113.198 95.5101 113.301C95.4539 113.405 95.377 113.496 95.2842 113.568C95.1913 113.641 95.0845 113.693 94.9704 113.723C94.8563 113.752 94.7374 113.757 94.6211 113.739C94.5048 113.72 94.3936 113.677 94.2945 113.614C94.1953 113.55 94.1104 113.467 94.0449 113.369C93.9795 113.271 93.9349 113.161 93.9141 113.045L93.4512 111.241ZM94.4674 112.938C94.5312 113.188 94.6642 113.252 94.8398 113.21C95.0153 113.167 95.0951 113.039 95.0366 112.795L94.5525 110.922C94.4886 110.672 94.3556 110.608 94.1801 110.651C94.0045 110.693 93.9247 110.821 93.9886 111.066L94.4674 112.938Z" fill="#92E3A9"/>
<path d="M95.9672 109.666C96.0787 109.628 96.1974 109.616 96.3144 109.63C96.4314 109.644 96.5437 109.685 96.6426 109.749C96.7415 109.813 96.8246 109.899 96.8855 110C96.9464 110.101 96.9835 110.214 96.994 110.331L97.0206 110.438L96.4886 110.571L96.4514 110.427C96.3875 110.183 96.2598 110.113 96.0896 110.156C95.9193 110.198 95.8396 110.321 95.9034 110.571C95.9672 110.821 96.1268 110.981 96.5631 111.199C97.0951 111.486 97.3398 111.731 97.4409 112.135C97.4949 112.247 97.5235 112.369 97.5245 112.494C97.5255 112.618 97.499 112.741 97.4469 112.853C97.3947 112.966 97.3182 113.066 97.2229 113.146C97.1275 113.225 97.0157 113.283 96.8955 113.314C96.7753 113.345 96.6496 113.35 96.5275 113.326C96.4055 113.303 96.29 113.253 96.1896 113.18C96.0891 113.107 96.0061 113.013 95.9465 112.904C95.8869 112.795 95.8522 112.674 95.8449 112.55L95.7864 112.337L96.3184 112.204L96.3822 112.454C96.446 112.699 96.579 112.763 96.7546 112.715C96.9301 112.667 97.0099 112.555 96.9461 112.305C96.8823 112.055 96.728 111.896 96.2918 111.672C95.7332 111.39 95.515 111.14 95.414 110.741C95.3671 110.635 95.3446 110.52 95.348 110.404C95.3514 110.288 95.3808 110.175 95.4338 110.072C95.4869 109.969 95.5623 109.879 95.6546 109.809C95.7469 109.738 95.8537 109.69 95.9672 109.666Z" fill="#92E3A9"/>
<path d="M97.1006 109.416L97.6326 109.278L98.5263 112.747L97.9943 112.885L97.1006 109.416Z" fill="#92E3A9"/>
<path d="M97.8877 109.214L99.5688 108.783L99.6965 109.278L99.1273 109.427L99.8933 112.396L99.3613 112.539L98.5793 109.592L98.0101 109.736L97.8877 109.214Z" fill="#92E3A9"/>
<path d="M99.8032 108.72L100.335 108.581L101.224 112.05L100.692 112.188L99.8032 108.72Z" fill="#92E3A9"/>
<path d="M100.915 109.321C100.877 109.209 100.863 109.091 100.873 108.974C100.883 108.856 100.917 108.742 100.974 108.639C101.03 108.535 101.107 108.444 101.2 108.372C101.292 108.299 101.399 108.247 101.513 108.217C101.627 108.188 101.746 108.182 101.863 108.201C101.979 108.22 102.09 108.262 102.189 108.326C102.288 108.39 102.373 108.473 102.439 108.571C102.504 108.669 102.549 108.779 102.57 108.895L103.032 110.699C103.07 110.81 103.084 110.928 103.074 111.046C103.064 111.163 103.03 111.277 102.974 111.381C102.918 111.484 102.841 111.575 102.748 111.648C102.655 111.72 102.548 111.773 102.434 111.802C102.32 111.831 102.201 111.837 102.085 111.818C101.969 111.799 101.857 111.757 101.758 111.693C101.659 111.63 101.574 111.546 101.509 111.448C101.443 111.35 101.399 111.24 101.378 111.124L100.915 109.321ZM101.931 111.023C101.995 111.268 102.128 111.332 102.304 111.289C102.479 111.247 102.559 111.124 102.495 110.874L102.016 109.001C101.952 108.757 101.819 108.688 101.644 108.735C101.468 108.783 101.389 108.9 101.452 109.15L101.931 111.023Z" fill="#92E3A9"/>
<path d="M103.447 108.805L104.091 111.316L103.602 111.443L102.703 107.996L103.389 107.82L104.453 109.757L103.921 107.682L104.405 107.56L105.299 111.028L104.735 111.172L103.447 108.805Z" fill="#92E3A9"/>
<path d="M95.515 107.804L95.7065 107.757C95.8768 107.714 95.9992 107.613 95.93 107.347L95.249 104.687L95.781 104.543L96.4513 107.15C96.6269 107.842 96.3024 108.118 95.8927 108.214L95.6267 108.273L95.515 107.804Z" fill="#92E3A9"/>
<path d="M96.3399 105.336C96.3022 105.224 96.288 105.106 96.2981 104.989C96.3081 104.871 96.3423 104.757 96.3984 104.654C96.4546 104.55 96.5315 104.459 96.6243 104.387C96.7172 104.314 96.824 104.262 96.9381 104.233C97.0521 104.203 97.1711 104.198 97.2874 104.216C97.4037 104.235 97.5149 104.278 97.614 104.341C97.7131 104.405 97.7981 104.488 97.8636 104.586C97.929 104.684 97.9736 104.794 97.9944 104.91L98.4573 106.714C98.4949 106.826 98.5092 106.944 98.4991 107.061C98.489 107.178 98.4549 107.292 98.3987 107.396C98.3426 107.5 98.2657 107.59 98.1728 107.663C98.08 107.735 97.9732 107.788 97.8591 107.817C97.745 107.847 97.6261 107.852 97.5098 107.833C97.3935 107.815 97.2823 107.772 97.1832 107.709C97.084 107.645 96.9991 107.562 96.9336 107.464C96.8682 107.366 96.8236 107.255 96.8028 107.139L96.3399 105.336ZM97.356 107.033C97.4199 107.283 97.5529 107.347 97.7231 107.304C97.8933 107.262 97.9838 107.134 97.9199 106.889L97.4411 105.017C97.3773 104.767 97.2443 104.703 97.0688 104.745C96.8932 104.788 96.8081 104.916 96.8719 105.16L97.356 107.033Z" fill="#92E3A9"/>
<path d="M99.9682 104.341L100 104.464C100.055 104.596 100.067 104.742 100.036 104.882C100.005 105.022 99.9308 105.149 99.8246 105.246C100.149 105.288 100.357 105.512 100.42 105.879L100.495 106.161C100.543 106.27 100.565 106.39 100.559 106.51C100.552 106.629 100.517 106.746 100.457 106.85C100.397 106.953 100.313 107.041 100.212 107.107C100.112 107.172 99.9971 107.212 99.8778 107.225L99.0213 107.443L98.1328 103.979L98.9521 103.74C99.0577 103.693 99.173 103.672 99.2884 103.678C99.4039 103.685 99.516 103.719 99.6155 103.778C99.715 103.837 99.799 103.919 99.8604 104.017C99.9217 104.115 99.9587 104.226 99.9682 104.341ZM98.8031 104.341L99.0372 105.262L99.25 105.203C99.4575 105.155 99.5586 105.033 99.4841 104.756L99.4362 104.559C99.3724 104.315 99.2607 104.224 99.0638 104.277L98.8031 104.341ZM99.1649 105.756L99.4415 106.82L99.7501 106.74C99.9363 106.693 100.011 106.581 99.9469 106.326L99.8671 106.022C99.7873 105.703 99.6543 105.629 99.4096 105.692L99.1649 105.756Z" fill="#92E3A9"/>
<path d="M199.941 73.0064L175.028 75.7781C174.611 75.8276 174.231 76.0389 173.969 76.3664C173.708 76.6939 173.585 77.1113 173.629 77.5284L174.608 86.3011C174.657 86.7164 174.868 87.0958 175.194 87.3574C175.52 87.6191 175.936 87.7422 176.353 87.7002L179.465 87.3544L177.337 92.6744L181.508 87.1416L201.24 84.9445C201.656 84.895 202.036 84.6837 202.298 84.3562C202.56 84.0286 202.682 83.6112 202.639 83.1942L201.66 74.4162C201.613 74.0039 201.407 73.6262 201.086 73.363C200.766 73.0998 200.355 72.9719 199.941 73.0064Z" fill="white" stroke="#263238" stroke-linecap="round" stroke-linejoin="round"/>
<path d="M178.656 83.0346C178.598 82.9074 178.565 82.77 178.56 82.6302L178.502 82.0982C178.47 81.7844 178.353 81.6833 178.114 81.7099H177.933L178.082 83.0718L177.55 83.1303L177.177 79.7787L177.97 79.6936C178.073 79.6629 178.183 79.6574 178.289 79.6776C178.395 79.6979 178.495 79.7432 178.58 79.8099C178.664 79.8766 178.732 79.9627 178.777 80.0609C178.822 80.1592 178.842 80.2667 178.837 80.3746L178.869 80.6406C178.902 80.7729 178.894 80.9122 178.846 81.0398C178.797 81.1673 178.711 81.2768 178.598 81.3534C178.874 81.4332 178.986 81.6726 179.029 82.0184L179.082 82.5504C179.089 82.6911 179.125 82.8287 179.188 82.9548L178.656 83.0346ZM177.762 80.2256L177.879 81.2577L178.082 81.2311C178.278 81.2311 178.39 81.114 178.358 80.8427L178.321 80.5129C178.294 80.2735 178.204 80.1777 178.018 80.199L177.762 80.2256Z" fill="#263238"/>
<path d="M179.816 80.9491L180.539 80.864L180.592 81.3428L179.869 81.4226L179.975 82.4068L180.885 82.3057L180.938 82.7845L179.502 82.9441L179.129 79.5925L180.566 79.4329L180.619 79.9117L179.709 80.0128L179.816 80.9491Z" fill="#263238"/>
<path d="M180.912 80.2043C180.896 80.0976 180.902 79.9888 180.93 79.8844C180.957 79.78 181.005 79.6823 181.071 79.5969C181.137 79.5115 181.22 79.4403 181.314 79.3876C181.408 79.3348 181.512 79.3015 181.619 79.2897C181.726 79.2779 181.835 79.2878 181.938 79.3189C182.041 79.35 182.137 79.4015 182.22 79.4705C182.303 79.5395 182.371 79.6244 182.421 79.7204C182.47 79.8163 182.5 79.9212 182.508 80.0288L182.705 81.7684C182.724 81.93 182.705 82.0938 182.651 82.2472C182.683 82.3111 182.726 82.3164 182.811 82.3057H182.859L182.912 82.7739H182.838C182.749 82.7947 182.657 82.7892 182.572 82.758C182.487 82.7268 182.413 82.6713 182.359 82.5983C182.245 82.6515 182.122 82.6856 181.997 82.6994C181.887 82.7209 181.774 82.7175 181.666 82.6895C181.557 82.6615 181.457 82.6097 181.371 82.5378C181.285 82.4659 181.217 82.3757 181.171 82.2739C181.124 82.172 181.101 82.0611 181.103 81.9493L180.912 80.2043ZM181.635 81.9227C181.662 82.1621 181.779 82.2419 181.944 82.2206C182.109 82.1993 182.205 82.1036 182.178 81.8642L181.976 80.0554C181.949 79.816 181.837 79.7362 181.667 79.7521C181.497 79.7681 181.407 79.8745 181.433 80.1139L181.635 81.9227Z" fill="#263238"/>
<path d="M183.258 79.1297L183.545 81.7152C183.572 81.9546 183.689 82.0291 183.854 82.0078C184.019 81.9865 184.12 81.8908 184.093 81.6567L183.806 79.0712L184.301 79.0126L184.588 81.5662C184.599 81.671 184.59 81.7771 184.561 81.8783C184.531 81.9795 184.482 82.074 184.416 82.1562C184.35 82.2385 184.269 82.3069 184.176 82.3577C184.084 82.4084 183.982 82.4405 183.878 82.452C183.773 82.4635 183.667 82.4543 183.566 82.4249C183.464 82.3954 183.37 82.3463 183.288 82.2804C183.205 82.2144 183.137 82.1329 183.086 82.0405C183.035 81.9481 183.003 81.8466 182.992 81.7418L182.705 79.1882L183.258 79.1297Z" fill="#263238"/>
<path d="M184.657 78.9754L185.189 78.9169L185.562 82.2632L185.03 82.3217L184.657 78.9754Z" fill="#263238"/>
<path d="M187.04 82.0983C186.982 81.9711 186.95 81.8337 186.945 81.6939L186.886 81.1619C186.854 80.8534 186.737 80.747 186.498 80.7736H186.317L186.466 82.1355L185.934 82.194L185.562 78.8477L186.354 78.7573C186.458 78.7276 186.568 78.7231 186.674 78.7441C186.78 78.7651 186.879 78.8111 186.964 78.8781C187.048 78.9452 187.116 79.0314 187.161 79.1298C187.206 79.2281 187.226 79.3357 187.221 79.4436L187.253 79.7043C187.287 79.8366 187.28 79.9762 187.231 80.1039C187.183 80.2316 187.095 80.341 186.982 80.4171C187.259 80.4969 187.37 80.7363 187.413 81.0875L187.471 81.6195C187.475 81.7584 187.509 81.8948 187.572 82.0185L187.04 82.0983ZM186.147 79.2946L186.264 80.3214H186.466C186.663 80.3214 186.774 80.199 186.743 79.933L186.705 79.6032C186.679 79.3638 186.588 79.268 186.402 79.2893L186.147 79.2946Z" fill="#263238"/>
<path d="M188.174 80.0128L188.897 79.933L188.95 80.4118L188.227 80.4916L188.333 81.4705L189.243 81.3694L189.296 81.8482L187.865 82.0078L187.487 78.6615L188.924 78.5019L188.977 78.9807L188.067 79.0818L188.174 80.0128Z" fill="#263238"/>
<path d="M190.621 80.7204L190.711 78.3051L191.445 78.2253L191.818 81.5716L191.318 81.6301L191.052 79.2254L190.988 81.662L190.488 81.7205L189.844 79.3957L190.11 81.7631L189.647 81.811L189.275 78.4647L190.009 78.3849L190.621 80.7204Z" fill="#263238"/>
<path d="M192.52 79.5287L193.238 79.4489L193.292 79.9277L192.573 80.0075L192.68 80.9864L193.59 80.8853L193.643 81.3641L192.206 81.5237L191.834 78.1774L193.27 78.0178L193.324 78.4966L192.414 78.5977L192.52 79.5287Z" fill="#263238"/>
<path d="M194.18 78.8477L194.451 81.2736L193.978 81.3215L193.605 77.9752L194.265 77.9007L195.021 79.8479L194.797 77.8422L195.265 77.789L195.638 81.1353L195.106 81.1992L194.18 78.8477Z" fill="#263238"/>
<path d="M195.483 77.7678L197.111 77.5869L197.165 78.0657L196.633 78.1295L196.952 80.997L196.42 81.0555L196.101 78.188L195.569 78.2466L195.483 77.7678Z" fill="#263238"/>
<path d="M198.042 77.4486C198.574 77.3901 198.851 77.6667 198.91 78.204V78.3051L198.415 78.3636V78.2253C198.388 77.9859 198.282 77.9061 198.112 77.9221C197.941 77.938 197.861 78.0444 197.888 78.2838C197.915 78.5232 198.042 78.6934 198.42 78.9594C198.605 79.0566 198.765 79.1966 198.885 79.3678C199.005 79.539 199.083 79.7364 199.112 79.9437C199.14 80.0495 199.143 80.1602 199.123 80.2678C199.103 80.3753 199.058 80.4769 198.994 80.5651C198.929 80.6533 198.845 80.726 198.749 80.7777C198.652 80.8294 198.545 80.8589 198.436 80.864C198.327 80.8839 198.215 80.8791 198.107 80.85C198 80.8209 197.901 80.7682 197.817 80.6958C197.733 80.6234 197.666 80.533 197.621 80.4315C197.576 80.3299 197.555 80.2195 197.558 80.1086V79.9011L198.058 79.8479L198.085 80.0873C198.112 80.3267 198.223 80.4012 198.393 80.3799C198.564 80.3586 198.654 80.2628 198.628 80.0234C198.601 79.784 198.473 79.6085 198.096 79.3478C197.91 79.2507 197.751 79.1107 197.631 78.9395C197.51 78.7683 197.433 78.5709 197.404 78.3636C197.298 77.8369 197.526 77.5018 198.042 77.4486Z" fill="#263238"/>
<path d="M67.2554 144.012L218.822 127.132" stroke="#263238" stroke-linecap="round" stroke-linejoin="round"/>
<path d="M68.3568 141.879C67.678 141.569 66.9353 141.424 66.1897 141.458C65.4442 141.491 64.7173 141.701 64.0689 142.071C62.9477 142.745 62.0702 143.759 61.5631 144.965C59.7916 148.657 54.9131 157.11 54.0619 159.536C53.2107 161.962 51.4019 168.671 49.3963 171.575C47.3907 174.48 46.4277 178.752 46.4277 178.752L48.0237 219.29C48.8696 213.364 51.7477 206.522 51.7477 206.522C54.5129 204.875 56.8083 202.545 58.4137 199.755C58.8968 199.18 59.3243 198.56 59.6905 197.904C62.6378 192.696 63.6752 183.572 63.4145 176.555C63.1432 168.601 65.5106 164.851 69.2665 157.685C73.0224 150.519 71.1551 143.262 68.3568 141.879Z" fill="white"/>
<path opacity="0.4" d="M68.3565 141.879C67.6754 141.578 66.9339 141.439 66.19 141.472C65.4461 141.505 64.72 141.71 64.0685 142.071C66.3827 142.555 69.4417 143.55 68.8565 145.332C67.9415 148.146 64.542 144.268 63.0365 145.678C61.5309 147.087 56.2215 155.067 60.0732 158.206C63.9249 161.345 63.1003 167.048 60.701 168.777C58.3017 170.506 60.1371 174.193 61.2809 180.093C61.9778 183.662 60.7489 191.914 59.6849 197.877C62.6321 192.669 63.6695 183.545 63.4089 176.528C63.1375 168.575 65.5049 164.824 69.2609 157.658C73.0168 150.492 71.1495 143.167 68.3565 141.879Z" fill="#92E3A9"/>
<path d="M48.0291 219.264C48.8749 213.343 51.7531 206.496 51.7531 206.496C54.519 204.848 56.8159 202.518 58.4243 199.729C62.3345 195.116 63.6965 184.476 63.4251 176.528C63.1538 168.58 65.5531 164.851 69.2771 157.653C73.0011 150.455 71.453 143.347 68.3461 141.879C66.1809 140.858 63.3294 141.273 61.5525 144.965C59.7756 148.657 54.9025 157.11 54.0513 159.531C53.2001 161.951 51.3913 168.671 49.3857 171.581C47.38 174.491 46.4277 178.752 46.4277 178.752" stroke="#263238" stroke-linecap="round" stroke-linejoin="round"/>
<path d="M57.4561 160.047C57.4561 160.047 60.7172 160.148 62.2441 161.281" stroke="#263238" stroke-linecap="round" stroke-linejoin="round"/>
<path d="M45.1879 177.975C45.1879 177.975 44.4697 176.486 47.6936 174.815" stroke="#263238" stroke-linecap="round" stroke-linejoin="round"/>
<path opacity="0.2" d="M159.387 147.609C165.888 147.662 174.022 176.964 176.555 180.337C176.555 180.337 212.864 181.588 217.439 186.652C222.014 191.717 219.748 195.994 222.759 200.798C225.77 205.602 226.632 213.699 226.632 213.699L234.612 227.164L200.409 243.55C200.409 243.55 182.135 233.08 177.677 230.718C173.219 228.356 160.009 223.195 156.498 216.524C152.987 209.853 152.811 203.591 152.056 200.819C151.301 198.048 165.984 189.748 165.984 189.748L159.387 147.609Z" fill="black" fill-opacity="0.7"/>
<path d="M239.166 229.824C236.218 227.1 233.122 224.206 230.574 221.812C227.323 218.758 224.966 216.529 224.966 216.529C223.03 212.465 221.328 211.098 219.184 207.89C217.04 204.682 217.37 201.298 216.864 196.819C216.359 192.339 214.545 188.482 213.433 185.844C212.321 183.205 212.23 180.476 212.007 179.885C211.784 179.295 208.416 176.693 206.857 174.565C206.158 173.616 205.304 172.793 204.33 172.129C203.241 171.356 201.989 170.844 200.67 170.634C200.123 170.56 199.57 170.549 199.021 170.602C197.937 170.775 196.87 171.036 195.829 171.384C194.456 171.714 190.988 170.038 188.987 170.118C188.615 170.118 188.248 170.171 187.875 170.224C186.154 170.546 184.46 171.003 182.811 171.591C181.007 172.123 178.432 170.942 176.57 170.804H176.533C176.119 170.759 175.7 170.812 175.31 170.958C173.549 171.698 170.181 172.826 170.181 172.826C170.181 172.826 169.314 170.533 168.388 167.357C168.229 166.825 168.064 166.293 167.888 165.761C167.239 163.824 166.532 162.116 166.095 160.51C165.98 160.098 165.886 159.681 165.813 159.26C165.42 156.935 164.92 155.163 164.01 151.684L163.914 151.311C163.627 150.247 163.382 149.183 163.111 148.247C162.435 145.991 161.515 144.427 159.169 144.619C157.105 144.789 155.977 146.108 155.918 149.598C155.86 153.088 155.195 152.998 156.115 157.866C157.035 162.733 156.695 166.053 157.434 168.458C158.174 170.862 158.77 175.73 158.77 175.73C157.743 175.491 156.993 176.076 156.929 176.496C156.865 176.917 157.078 180.821 157.184 183.625C157.275 186.115 155.636 188.828 155.227 190.658C155.227 190.658 155.227 190.69 155.227 190.701C155.181 190.898 155.154 191.099 155.147 191.302C155.088 193.089 156.179 196.622 157.275 201.213C158.371 205.804 158.339 210.789 160.233 213.587C160.624 214.151 161.104 214.649 161.653 215.061C163.93 216.811 167.612 217.913 171.383 220.695C176.092 224.179 179.459 226.765 182.247 227.611C184.247 228.228 185.215 228.888 185.806 229.925C186.042 230.38 186.22 230.863 186.338 231.361C186.604 232.324 187.312 232.957 188.498 233.968C190.354 235.52 192.065 237.236 193.61 239.097C195.057 240.82 197.451 244.193 199.994 247.944L239.166 229.824Z" fill="white"/>
<path opacity="0.4" d="M165.792 159.244C165.864 159.665 165.959 160.082 166.074 160.494C163.02 160.643 157.727 163.43 158.052 165.17C158.456 167.298 159.387 172.325 160.712 173.225C162.036 174.124 164.526 174.32 164.526 174.32C164.361 174.373 164.199 174.435 164.042 174.507L163.989 174.533C163.295 174.866 162.719 175.4 162.334 176.065C160.653 178.89 161.77 183.992 163.09 186.259C168.575 195.686 165.542 204.91 163.558 204.347C161.573 203.783 159.334 195.095 159.376 192.919C159.411 191.646 159.273 190.373 158.967 189.137C158.126 189.062 156.578 189.834 155.184 190.658C155.184 190.658 155.184 190.632 155.184 190.616C155.594 188.786 157.232 186.072 157.142 183.583C157.035 180.779 156.817 176.874 156.886 176.454C156.956 176.033 157.7 175.448 158.727 175.688C158.727 175.688 158.126 170.825 157.392 168.415C156.658 166.005 156.993 162.696 156.073 157.823C155.152 152.95 155.817 153.035 155.876 149.556C155.934 146.077 157.062 144.768 159.126 144.576C161.483 144.385 162.393 145.949 163.068 148.205C162.75 148.025 162.419 147.866 162.079 147.731C161.226 147.345 160.26 147.293 159.371 147.587C158.349 147.986 157.679 149.263 157.365 150.524C156.908 152.338 157.19 154.126 158.232 153.248C159.413 152.258 162.233 151.817 163.973 151.652C164.92 155.147 165.398 156.94 165.792 159.244Z" fill="#92E3A9"/>
<path opacity="0.4" d="M186.333 231.372C186.216 230.875 186.038 230.394 185.801 229.941C185.21 228.904 184.242 228.244 182.242 227.627C179.454 226.76 176.086 224.174 171.378 220.711C167.606 217.928 163.93 216.827 161.648 215.077C164.148 215.747 167.011 214.412 168.41 216.082C170.442 218.492 177.906 221.094 177.906 221.094C185.668 225.813 186.333 231.372 186.333 231.372Z" fill="#92E3A9"/>
<path opacity="0.4" d="M176.517 170.772C175.741 170.772 174.921 176.246 175.139 178.06C175.73 182.747 181.444 196.281 178.331 196.68C177.049 196.851 174.017 190.616 173.192 187.573C170.697 178.316 170.144 174.352 170.144 174.352C170.144 174.352 168.245 169.352 167.851 165.729C168.027 166.261 168.192 166.793 168.351 167.325C169.277 170.517 170.144 172.794 170.144 172.794C170.144 172.794 173.512 171.666 175.272 170.926C175.669 170.776 176.096 170.723 176.517 170.772Z" fill="#92E3A9"/>
<path opacity="0.4" d="M187.86 170.24C186.264 170.772 185.013 172.756 183.753 173.358C182.21 174.097 178.353 171.15 176.555 170.82C178.417 170.958 180.992 172.161 182.795 171.607C184.445 171.019 186.138 170.562 187.86 170.24Z" fill="#92E3A9"/>
<path opacity="0.4" d="M199.01 170.586C198.446 171.786 198.068 173.065 197.888 174.379C197.59 178.922 202.676 194.638 199.92 192.52C196.356 189.77 196.398 177.273 193.323 173.24C192.339 171.948 189.525 170.181 188.987 170.102C190.988 170.022 194.456 171.698 195.829 171.368C196.866 171.021 197.93 170.759 199.01 170.586Z" fill="#92E3A9"/>
<path opacity="0.4" d="M230.563 221.791C227.845 219.886 225.036 218.12 223.376 217.588C219.301 216.343 217.758 214.396 216.582 210.848C215.406 207.299 216.348 207.155 216.582 203.309C216.816 199.463 213.741 195.499 214.124 196.425C214.507 197.351 214.412 204.405 213.252 205.017C212.092 205.629 210.592 201.266 209.57 197.649C208.549 194.031 206.469 176.565 205.118 173.373C204.929 172.907 204.667 172.474 204.341 172.091C205.314 172.755 206.169 173.579 206.868 174.528C208.427 176.656 211.794 179.247 212.018 179.848C212.241 180.449 212.326 183.168 213.443 185.806C214.561 188.445 216.369 192.297 216.875 196.781C217.38 201.266 217.061 204.65 219.194 207.852C221.328 211.055 223.041 212.428 224.977 216.492C224.956 216.524 227.313 218.737 230.563 221.791Z" fill="#92E3A9"/>
<path opacity="0.4" d="M186.503 180.098C187.519 180.758 190.706 191.802 191.823 194.462C192.94 197.122 193.089 204.038 191.796 202.229C190.504 200.42 182.359 177.411 186.503 180.098Z" fill="#92E3A9"/>
<path d="M199.026 246.529C196.845 243.363 194.866 240.608 193.605 239.107C192.06 237.247 190.348 235.53 188.492 233.979C187.306 232.957 186.599 232.335 186.333 231.372C186.216 230.875 186.037 230.394 185.801 229.941C185.21 228.904 184.242 228.244 182.241 227.627C179.454 226.76 176.086 224.174 171.378 220.711C167.606 217.928 163.93 216.827 161.648 215.077C161.098 214.665 160.619 214.167 160.227 213.603C158.349 210.826 158.365 205.81 157.269 201.229C156.173 196.648 155.083 193.105 155.141 191.318C155.149 191.115 155.176 190.914 155.221 190.717C155.221 190.717 155.221 190.69 155.221 190.674C155.631 188.844 157.269 186.131 157.179 183.641C157.073 180.837 156.854 176.933 156.924 176.512C156.993 176.092 157.738 175.507 158.764 175.746C158.764 175.746 158.163 170.884 157.429 168.474C156.695 166.064 157.03 162.755 156.11 157.882C155.189 153.009 155.854 153.094 155.913 149.614C155.971 146.135 157.099 144.826 159.163 144.635C161.52 144.443 162.43 146.007 163.105 148.263C163.387 149.194 163.637 150.242 163.909 151.327L164.005 151.7C164.914 155.179 165.414 156.951 165.808 159.275C165.88 159.697 165.974 160.114 166.09 160.526C166.526 162.122 167.234 163.84 167.883 165.777C168.058 166.309 168.223 166.841 168.383 167.373C169.309 170.565 170.176 172.841 170.176 172.841C170.176 172.841 173.543 171.714 175.304 170.974C175.694 170.828 176.114 170.775 176.528 170.82H176.565C178.427 170.958 181.002 172.161 182.805 171.607C184.455 171.019 186.148 170.562 187.87 170.24V170.24C188.242 170.187 188.61 170.15 188.982 170.134C190.982 170.054 194.451 171.73 195.823 171.4C196.864 171.052 197.932 170.79 199.015 170.618C199.565 170.565 200.118 170.576 200.665 170.65C201.983 170.86 203.236 171.372 204.325 172.145C205.298 172.809 206.153 173.632 206.852 174.581C208.411 176.709 211.778 179.3 212.002 179.901C212.225 180.502 212.31 183.221 213.427 185.86C214.545 188.498 216.353 192.35 216.859 196.835C217.364 201.319 217.045 204.703 219.178 207.906C221.312 211.108 223.025 212.481 224.961 216.545C224.961 216.545 227.318 218.774 230.568 221.828C232.829 223.956 235.521 226.467 238.155 228.909" stroke="#263238" stroke-linecap="round" stroke-linejoin="round"/>
<path d="M158.743 175.709C159.546 179.071 160.238 183.322 160.142 185.179C160.047 187.035 161.781 192.754 161.43 195.425" stroke="#263238" stroke-linecap="round" stroke-linejoin="round"/>
<path d="M161.111 177.943C161.111 177.943 162.819 174.751 164.553 174.32C166.287 173.89 168.277 174.613 170.165 174.379C172.054 174.145 173.634 172.336 175.315 171.591" stroke="#263238" stroke-linecap="round" stroke-linejoin="round"/>
<path d="M159.504 165.372C159.504 165.372 162.382 163.462 164.292 164.223" stroke="#263238" stroke-linecap="round" stroke-linejoin="round"/>
<path d="M161.542 163.324C162.333 162.996 163.212 162.945 164.037 163.18" stroke="#263238" stroke-linecap="round" stroke-linejoin="round"/>
<path d="M158.749 155.344C159.757 154.852 160.861 154.589 161.983 154.573" stroke="#263238" stroke-linecap="round" stroke-linejoin="round"/>
<path d="M155.206 190.637C156.007 189.959 156.875 189.364 157.796 188.86" stroke="#263238" stroke-linecap="round" stroke-linejoin="round"/>
<path d="M161.302 192.483C160.936 193.505 160.675 194.562 160.525 195.638" stroke="#263238" stroke-linecap="round" stroke-linejoin="round"/>
<path d="M156.775 147.103C156.775 147.103 157.216 151.109 157.786 151.359C158.355 151.609 162.207 151.014 162.35 150.269C162.494 149.524 161.871 146.662 161.871 146.662C161.871 146.662 158.69 143.305 156.775 147.103Z" stroke="#263238" stroke-linecap="round" stroke-linejoin="round"/>
<path d="M157.158 183.604C157.158 183.604 159.903 181.279 159.44 179.007C158.978 176.736 158.063 176.975 156.897 177.241" stroke="#263238" stroke-linecap="round" stroke-linejoin="round"/>
<path d="M207.102 177.076C208.06 180.614 209.523 191.249 209.762 192.802C210.001 194.356 211.06 198.239 211.06 198.239" stroke="#263238" stroke-linecap="round" stroke-linejoin="round"/>
<path d="M182.843 174.251C187.375 178.342 183.566 177.289 191.291 200.133" stroke="#263238" stroke-linecap="round" stroke-linejoin="round"/>
<path d="M224.956 216.524C224.956 216.524 221.424 214.928 220.599 213.72" stroke="#263238" stroke-linecap="round" stroke-linejoin="round"/>
<path d="M183.104 225.35C184.348 226.621 185.694 229.734 185.764 229.925" stroke="#263238" stroke-linecap="round" stroke-linejoin="round"/>
</svg>
