<svg width="229" height="229" viewBox="0 0 229 229" fill="none" xmlns="http://www.w3.org/2000/svg">
<path d="M152.056 205.152L84.6888 166.254C84.0961 165.913 83.6039 165.421 83.2617 164.829C82.9194 164.237 82.7393 163.565 82.7393 162.881C82.7393 162.197 82.9194 161.525 83.2617 160.933C83.6039 160.341 84.0961 159.849 84.6888 159.508L91.3343 155.317C92.4815 154.656 93.7821 154.308 95.106 154.308C96.4298 154.308 97.7304 154.656 98.8776 155.317L166.254 194.219C166.847 194.561 167.339 195.052 167.681 195.645C168.023 196.237 168.203 196.909 168.203 197.593C168.203 198.277 168.023 198.948 167.681 199.541C167.339 200.133 166.847 200.624 166.254 200.966L159.608 205.152C158.461 205.816 157.158 206.166 155.832 206.166C154.506 206.166 153.204 205.816 152.056 205.152Z" fill="#E0E0E0"/>
<path d="M49.6242 169.689C57.6983 169.689 64.2436 165.93 64.2436 161.294C64.2436 156.657 57.6983 152.899 49.6242 152.899C41.5502 152.899 35.0049 156.657 35.0049 161.294C35.0049 165.93 41.5502 169.689 49.6242 169.689Z" fill="#E6E6E6"/>
<path d="M175.945 171.613L182.357 175.299C182.357 175.299 179.082 165.008 180.827 154.635C181.487 150.714 182.902 148.768 183.397 147.719C183.891 146.67 187.725 140.189 184.313 137.221C180.9 134.254 172.963 140.221 173.394 156.192C173.59 161.419 174.447 166.601 175.945 171.613Z" fill="#0B2D1B"/>
<path opacity="0.5" d="M175.945 171.613L182.357 175.299C182.357 175.299 179.082 165.008 180.827 154.635C181.487 150.714 182.902 148.768 183.397 147.719C183.891 146.67 187.725 140.189 184.313 137.221C180.9 134.254 172.963 140.221 173.394 156.192C173.59 161.419 174.447 166.601 175.945 171.613Z" fill="black"/>
<path d="M178.927 173.555C178.88 173.555 178.834 173.542 178.796 173.516C178.757 173.489 178.728 173.452 178.712 173.408C178.689 173.339 176.238 166.643 176.316 155.88C176.394 145.117 182.05 139.273 182.105 139.218C182.127 139.197 182.152 139.18 182.18 139.168C182.208 139.156 182.238 139.151 182.268 139.151C182.298 139.151 182.328 139.156 182.356 139.168C182.384 139.18 182.409 139.197 182.431 139.218C182.452 139.24 182.469 139.265 182.481 139.293C182.492 139.321 182.498 139.351 182.498 139.381C182.498 139.411 182.492 139.441 182.481 139.469C182.469 139.497 182.452 139.522 182.431 139.543C182.376 139.598 176.852 145.268 176.774 155.885C176.696 166.501 179.115 173.188 179.142 173.252C179.163 173.309 179.16 173.372 179.134 173.427C179.108 173.482 179.062 173.525 179.005 173.545C178.98 173.553 178.953 173.556 178.927 173.555Z" fill="white"/>
<path d="M178.619 173.188L187.385 178.226C188.299 178.766 189.382 178.942 190.419 178.719C191.457 178.495 192.372 177.889 192.982 177.022C193.562 176.119 193.807 175.041 193.674 173.976C193.252 169.423 191.274 168.375 193.697 166.346C196.119 164.317 196.751 164.175 196.614 162.224C196.477 160.273 195.144 159.421 194.512 158.651C193.88 157.882 192.13 156.27 193.321 153.888C194.512 151.506 196.138 149.203 193.674 148.149C192.203 147.517 189.753 148.36 188.141 150.109C186.529 151.859 185.201 153.119 183.657 153.54C182.114 153.961 178.899 154.03 179.036 156.691C179.173 159.352 179.879 160.263 179.247 161.45C178.056 163.666 172.876 164.926 178.619 173.188Z" fill="#0B2D1B"/>
<path d="M182.952 175.899C182.895 175.898 182.841 175.875 182.799 175.837C182.757 175.798 182.73 175.746 182.723 175.689C182.723 175.533 181.377 159.814 192.186 149.354C192.23 149.317 192.287 149.298 192.345 149.302C192.403 149.305 192.457 149.33 192.497 149.372C192.537 149.414 192.56 149.469 192.56 149.527C192.561 149.585 192.54 149.641 192.502 149.684C181.849 159.993 183.168 175.492 183.181 175.648C183.187 175.708 183.168 175.767 183.129 175.814C183.091 175.86 183.035 175.889 182.975 175.895L182.952 175.899Z" fill="white"/>
<path d="M184.688 162.37C184.63 162.37 184.574 162.349 184.532 162.31C184.49 162.271 184.463 162.217 184.459 162.159C184.363 160.941 184.02 159.756 183.45 158.674C182.881 157.593 182.097 156.639 181.147 155.871C181.123 155.854 181.102 155.832 181.085 155.806C181.069 155.781 181.058 155.752 181.053 155.722C181.048 155.692 181.049 155.662 181.056 155.632C181.062 155.603 181.075 155.575 181.092 155.55C181.109 155.526 181.131 155.505 181.156 155.489C181.181 155.473 181.209 155.462 181.239 155.457C181.268 155.451 181.298 155.452 181.328 155.459C181.357 155.466 181.384 155.478 181.408 155.496C182.421 156.298 183.256 157.303 183.86 158.445C184.463 159.588 184.823 160.843 184.917 162.132C184.922 162.193 184.903 162.254 184.863 162.301C184.824 162.348 184.767 162.378 184.706 162.384L184.688 162.37Z" fill="white"/>
<path d="M183.941 165.068C183.886 165.068 183.832 165.049 183.79 165.013C183.745 164.972 183.717 164.916 183.712 164.855C183.708 164.794 183.728 164.734 183.767 164.688C183.877 164.559 186.584 161.573 192.927 162.366C192.987 162.374 193.042 162.405 193.079 162.453C193.116 162.501 193.132 162.562 193.124 162.622C193.116 162.682 193.085 162.737 193.037 162.775C192.989 162.813 192.928 162.83 192.868 162.824C186.776 162.059 184.134 164.962 184.106 164.99C184.085 165.013 184.06 165.032 184.032 165.046C184.003 165.059 183.972 165.067 183.941 165.068Z" fill="white"/>
<path d="M150.004 200.503L90.7573 166.295C86.5757 163.882 83.1865 157.405 83.1865 151.832V24.9656C83.1865 19.3917 86.5757 16.8315 90.7573 19.2452L150.004 53.4532C154.186 55.8668 157.575 62.343 157.575 67.9168V194.783C157.575 200.352 154.186 202.917 150.004 200.503Z" fill="#455A64"/>
<path d="M156.828 49.464L97.5768 15.256C95.7906 14.2255 94.151 14.1064 92.8549 14.7384C92.6962 14.8179 92.5431 14.9082 92.3969 15.0087L85.7559 18.8696C87.0932 18.0681 88.8428 18.1276 90.7618 19.236L150.009 53.444C154.19 55.8577 157.579 62.3338 157.579 67.9077V194.774C157.579 197.723 156.631 199.812 155.12 200.801L161.674 196.986C163.346 196.097 164.422 193.922 164.422 190.803V63.9368C164.422 58.3538 161.01 51.8777 156.828 49.464Z" fill="#37474F"/>
<path d="M157.575 67.9077V194.774C157.575 197.723 156.627 199.812 155.115 200.801L161.674 196.986C163.345 196.097 164.422 193.922 164.422 190.803V63.9368L157.598 67.8985L157.575 67.9077Z" fill="#263238"/>
<path d="M164.399 73.7792L157.575 77.718V80.7958L164.399 76.8524V73.7792Z" fill="#37474F"/>
<path d="M161.408 94.2472C160.799 94.5999 160.305 94.2243 160.305 93.4137V86.7956C160.311 86.3819 160.414 85.9754 160.606 85.6087C160.797 85.242 161.072 84.9254 161.408 84.6842C162.018 84.3315 162.512 84.6842 162.512 85.5178V92.1359C162.506 92.5496 162.403 92.9561 162.211 93.3227C162.02 93.6894 161.745 94.0061 161.408 94.2472Z" fill="#37474F"/>
<path d="M160.3 93.432V86.7956C160.307 86.3819 160.41 85.9754 160.601 85.6087C160.793 85.242 161.068 84.9254 161.404 84.6842C161.505 84.6139 161.622 84.5711 161.744 84.5598C161.866 84.5486 161.989 84.5694 162.1 84.6201L161.271 84.1942C161.158 84.1396 161.032 84.1159 160.907 84.1256C160.781 84.1352 160.661 84.1778 160.557 84.2491C160.22 84.4903 159.945 84.8069 159.753 85.1734C159.56 85.54 159.456 85.9465 159.449 86.3605V92.974C159.431 93.1411 159.457 93.3098 159.522 93.4644C159.588 93.6189 159.692 93.7543 159.824 93.8579L160.69 94.3159C160.552 94.2167 160.443 94.0824 160.375 93.927C160.306 93.7716 160.281 93.6007 160.3 93.432Z" fill="#455A64"/>
<path d="M161.408 110.264C160.799 110.616 160.305 110.264 160.305 109.43V102.812C160.311 102.398 160.414 101.992 160.606 101.625C160.798 101.259 161.073 100.942 161.408 100.7C162.018 100.348 162.512 100.7 162.512 101.539V108.152C162.507 108.566 162.404 108.973 162.212 109.34C162.021 109.706 161.745 110.023 161.408 110.264Z" fill="#37474F"/>
<path d="M160.3 109.43V102.812C160.306 102.398 160.409 101.992 160.601 101.625C160.793 101.259 161.068 100.942 161.403 100.7C161.504 100.631 161.621 100.589 161.743 100.578C161.865 100.567 161.988 100.587 162.1 100.636L161.271 100.206C161.158 100.149 161.032 100.124 160.906 100.134C160.78 100.143 160.659 100.187 160.556 100.261C160.219 100.501 159.943 100.818 159.75 101.184C159.558 101.551 159.454 101.958 159.448 102.372V109.004C159.43 109.171 159.455 109.34 159.521 109.495C159.587 109.649 159.691 109.785 159.823 109.888L160.689 110.346C160.546 110.244 160.433 110.105 160.364 109.943C160.296 109.781 160.273 109.604 160.3 109.43Z" fill="#455A64"/>
<path d="M147.934 57.0119L89.7128 23.3855C89.4698 23.2457 89.1945 23.1719 88.9142 23.1714C88.6338 23.1709 88.3582 23.2437 88.1147 23.3825C87.8712 23.5214 87.6683 23.7216 87.526 23.9631C87.3837 24.2047 87.3071 24.4792 87.3037 24.7595V151.832C87.3037 156.073 90.3128 161.28 93.9859 163.401L150.778 196.207C151.047 196.362 151.353 196.444 151.663 196.443C151.974 196.443 152.279 196.361 152.548 196.206C152.817 196.05 153.041 195.827 153.196 195.558C153.352 195.289 153.434 194.984 153.434 194.673V66.552C153.457 63.0529 150.975 58.7614 147.934 57.0119Z" fill="#0B2D1B"/>
<path opacity="0.9" d="M147.934 57.0119L89.7128 23.3855C89.4698 23.2457 89.1945 23.1719 88.9142 23.1714C88.6338 23.1709 88.3582 23.2437 88.1147 23.3825C87.8712 23.5214 87.6683 23.7216 87.526 23.9631C87.3837 24.2047 87.3071 24.4792 87.3037 24.7595V151.832C87.3037 156.073 90.3128 161.28 93.9859 163.401L150.778 196.207C151.047 196.362 151.353 196.444 151.663 196.443C151.974 196.443 152.279 196.361 152.548 196.206C152.817 196.05 153.041 195.827 153.196 195.558C153.352 195.289 153.434 194.984 153.434 194.673V66.552C153.457 63.0529 150.975 58.7614 147.934 57.0119Z" fill="white"/>
<path d="M107.126 32.1653L108.028 35.9622L127.328 47.0916L130.663 45.3145L107.126 32.1653Z" fill="#455A64"/>
<path d="M112.801 35.8339C112.801 36.466 112.343 36.7179 111.811 36.4064C111.526 36.2171 111.289 35.9635 111.12 35.666C110.951 35.3685 110.853 35.0354 110.836 34.6935C110.836 34.066 111.294 33.8096 111.825 34.1256C112.11 34.314 112.347 34.5667 112.517 34.8635C112.686 35.1602 112.783 35.4926 112.801 35.8339Z" fill="#263238"/>
<path d="M125.803 43.8718C125.698 43.871 125.594 43.8442 125.501 43.7939L115.645 38.2979C115.506 38.2162 115.404 38.0833 115.362 37.9276C115.319 37.7719 115.339 37.6058 115.418 37.4647C115.496 37.3236 115.626 37.2187 115.781 37.1724C115.935 37.1262 116.102 37.1422 116.245 37.2171L126.106 42.7131C126.226 42.7797 126.32 42.8843 126.374 43.0103C126.428 43.1364 126.438 43.2769 126.404 43.4096C126.369 43.5423 126.291 43.6597 126.183 43.7434C126.074 43.827 125.941 43.8722 125.803 43.8718Z" fill="#263238"/>
<path d="M99.5145 49.8304C98.9146 49.4823 98.4795 49.7846 98.4795 50.5495C98.4795 50.932 98.5739 51.3085 98.7545 51.6457C98.9351 51.9829 99.1962 52.2702 99.5145 52.4822C99.685 52.5857 99.8807 52.6405 100.08 52.6405C100.28 52.6405 100.475 52.5857 100.646 52.4822L101.603 54.2135C101.266 54.3993 100.884 54.4878 100.5 54.4692C100.116 54.4506 99.7447 54.3256 99.4275 54.1081C98.6499 53.6323 98.0015 52.9722 97.5398 52.1861C97.078 51.4001 96.8172 50.5123 96.7803 49.6014C96.7803 47.9022 97.9207 47.3114 99.4916 48.2274C100.379 48.7987 101.106 49.5869 101.603 50.5174L100.646 51.2777C100.41 50.7 100.018 50.199 99.5145 49.8304Z" fill="#0B2D1B"/>
<path d="M107.112 55.5692C107.112 57.2821 105.953 57.8592 104.364 56.9432C103.564 56.4652 102.895 55.797 102.416 54.9979C101.936 54.1989 101.662 53.2939 101.616 52.3632C101.616 50.6502 102.775 50.0732 104.364 50.9892C105.166 51.465 105.837 52.1327 106.317 52.9321C106.796 53.7316 107.07 54.6378 107.112 55.5692ZM103.315 53.3845C103.323 53.7777 103.425 54.1634 103.611 54.5098C103.797 54.8562 104.063 55.1534 104.387 55.3768C104.955 55.7066 105.413 55.3768 105.413 54.5982C105.411 54.2138 105.317 53.8355 105.139 53.4951C104.96 53.1547 104.702 52.8623 104.387 52.6425C103.81 52.3082 103.315 52.5922 103.315 53.3845Z" fill="#0B2D1B"/>
<path d="M108.958 53.7509L110.937 57.8729V54.9051L112.434 55.7707V61.5461L111.06 60.7491L109.091 56.6638V59.6133L107.584 58.7431V52.954L108.958 53.7509Z" fill="#0B2D1B"/>
<path d="M117.33 58.5828V60.0942L115.901 59.2698V63.5383L114.248 62.5811V58.3125L112.828 57.4927V55.9859L117.33 58.5828Z" fill="#0B2D1B"/>
<path d="M120.554 65.407L118.677 64.3215L118.42 64.9902L116.726 64.0101L118.837 59.453L120.536 60.4331L122.57 67.3856L120.806 66.3688L120.554 65.407ZM120.147 63.804L119.634 61.83L119.107 63.204L120.147 63.804Z" fill="#0B2D1B"/>
<path d="M125.194 64.6558C124.594 64.3123 124.159 64.61 124.159 65.3795C124.16 65.7618 124.255 66.1381 124.435 66.4751C124.616 66.8122 124.876 67.0997 125.194 67.3122C125.366 67.4147 125.562 67.4688 125.762 67.4688C125.962 67.4688 126.158 67.4147 126.33 67.3122L127.287 69.0435C126.949 69.2272 126.567 69.3145 126.182 69.2959C125.798 69.2773 125.426 69.1536 125.107 68.9381C124.329 68.4619 123.68 67.8011 123.218 67.0142C122.757 66.2272 122.496 65.3385 122.46 64.4268C122.46 62.7277 123.605 62.1368 125.171 63.0528C126.057 63.6269 126.785 64.4143 127.287 65.3428L126.33 66.0985C126.089 65.5238 125.696 65.0253 125.194 64.6558Z" fill="#0B2D1B"/>
<path d="M131.803 66.9413V68.4481L130.374 67.6237V71.906L128.721 70.9488V66.6802L127.301 65.8604V64.3536L131.803 66.9413Z" fill="#0B2D1B"/>
<path d="M136.69 74.0311C137.098 74.2647 137.409 74.0815 137.409 73.509V70.1793L139.067 71.132V74.4616C139.067 75.9959 138.151 76.4539 136.686 75.6158C135.979 75.2237 135.386 74.6568 134.962 73.9696C134.537 73.2823 134.297 72.4977 134.263 71.6907V68.3611L135.921 69.3183V72.648C135.927 72.9236 136 73.1936 136.135 73.4346C136.269 73.6756 136.459 73.8803 136.69 74.0311Z" fill="#0B2D1B"/>
<path d="M141.737 74.0495C141.549 73.9441 141.43 73.9396 141.43 74.1136C141.43 74.8372 144.018 75.8815 144.018 77.9745C144.018 79.2569 143.042 79.2615 141.915 78.6111C140.925 78.0043 140.072 77.1979 139.41 76.2433L140.024 75.1624C140.527 75.9422 141.174 76.6197 141.929 77.1593C142.172 77.3013 142.328 77.3013 142.328 77.0952C142.328 76.344 139.735 75.3456 139.735 73.3167C139.735 72.1625 140.578 71.9427 141.879 72.6755C142.717 73.1823 143.454 73.839 144.054 74.6128L143.454 75.7212C142.959 75.09 142.381 74.5278 141.737 74.0495Z" fill="#0B2D1B"/>
<path d="M91.1832 78.2905C93.0415 76.0081 93.9769 73.1122 93.8049 70.174C93.6329 67.2358 92.366 64.4687 90.254 62.4188C88.1421 60.3688 85.3385 59.1848 82.3965 59.1004C79.4545 59.016 76.5877 60.0373 74.3616 61.9628C72.1356 63.8882 70.7121 66.5781 70.3719 69.5016C70.0317 72.4251 70.7995 75.3699 72.5239 77.7551C74.2482 80.1403 76.8039 81.7926 79.6867 82.386C82.5695 82.9794 85.57 82.4709 88.0963 80.9607L93.8304 83.4522L91.1832 78.2905Z" fill="#0B2D1B"/>
<path opacity="0.4" d="M91.1832 78.2905C93.0415 76.0081 93.9769 73.1122 93.8049 70.174C93.6329 67.2358 92.366 64.4687 90.254 62.4188C88.1421 60.3688 85.3385 59.1848 82.3965 59.1004C79.4545 59.016 76.5877 60.0373 74.3616 61.9628C72.1356 63.8882 70.7121 66.5781 70.3719 69.5016C70.0317 72.4251 70.7995 75.3699 72.5239 77.7551C74.2482 80.1403 76.8039 81.7926 79.6867 82.386C82.5695 82.9794 85.57 82.4709 88.0963 80.9607L93.8304 83.4522L91.1832 78.2905Z" fill="black"/>
<path d="M77.6997 70.2297C77.6997 70.0511 77.5715 69.9503 77.3379 69.9503C76.7961 70.0213 76.29 70.2599 75.8906 70.6327L75.2402 69.3687C75.9248 68.8535 76.7518 68.5624 77.6081 68.5351C78.7073 68.5351 79.5409 69.1122 79.5409 69.9732C79.5409 70.5869 79.0829 71.1778 78.4966 71.7686L77.6768 72.5792H79.6141V73.9258H75.4509V72.822L77.3058 70.903C77.5055 70.7263 77.6435 70.4904 77.6997 70.2297Z" fill="white"/>
<path d="M83.0029 68.613L81.7388 71.6449H82.2564V70.6236H83.8502V71.6449H84.4548V72.8953H83.8502V73.9258H82.2564V72.8953H79.9893V71.7594L81.3633 68.613H83.0029Z" fill="white"/>
<path d="M89.3742 71.2831V73.9258H87.6705V71.7732C87.6803 71.7031 87.675 71.6317 87.6549 71.5638C87.6347 71.496 87.6003 71.4332 87.5538 71.3798C87.5074 71.3264 87.45 71.2836 87.3856 71.2543C87.3212 71.2249 87.2512 71.2098 87.1804 71.2098C86.8461 71.2098 86.6354 71.4709 86.6354 71.8739V73.9258H84.9316V68.3107H86.6354V70.3763C86.7687 70.1656 86.9544 69.9932 87.1744 69.876C87.3944 69.7587 87.6411 69.7007 87.8903 69.7076C88.0945 69.7023 88.2975 69.7402 88.4861 69.8188C88.6747 69.8973 88.8445 70.0148 88.9846 70.1635C89.1246 70.3122 89.2317 70.4888 89.2989 70.6817C89.366 70.8746 89.3917 71.0796 89.3742 71.2831Z" fill="white"/>
<path d="M144.929 113.841V170.747C144.93 171.391 144.762 172.023 144.441 172.581C144.119 173.139 143.657 173.602 143.1 173.924C142.543 174.246 141.91 174.416 141.267 174.416C140.623 174.417 139.991 174.247 139.433 173.926L108.784 156.228L103.352 153.096C101.482 152.014 99.9279 150.461 98.8461 148.59C97.7643 146.72 97.1924 144.599 97.1875 142.438V85.527C97.1866 84.8833 97.3552 84.2508 97.6764 83.6931C97.9976 83.1353 98.46 82.672 99.0172 82.3498C99.5743 82.0276 100.207 81.8578 100.85 81.8575C101.494 81.8573 102.126 82.0266 102.684 82.3484L138.774 103.183C140.645 104.263 142.199 105.816 143.28 107.687C144.36 109.558 144.929 111.68 144.929 113.841Z" fill="#0B2D1B"/>
<path opacity="0.5" d="M144.929 113.841V170.747C144.93 171.391 144.762 172.023 144.441 172.581C144.119 173.139 143.657 173.602 143.1 173.924C142.543 174.246 141.91 174.416 141.267 174.416C140.623 174.417 139.991 174.247 139.433 173.926L108.784 156.228L103.352 153.096C101.482 152.014 99.9279 150.461 98.8461 148.59C97.7643 146.72 97.1924 144.599 97.1875 142.438V85.527C97.1866 84.8833 97.3552 84.2508 97.6764 83.6931C97.9976 83.1353 98.46 82.672 99.0172 82.3498C99.5743 82.0276 100.207 81.8578 100.85 81.8575C101.494 81.8573 102.126 82.0266 102.684 82.3484L138.774 103.183C140.645 104.263 142.199 105.816 143.28 107.687C144.36 109.558 144.929 111.68 144.929 113.841Z" fill="white"/>
<path d="M127.274 147.513C127.274 147.513 133.012 157.03 128.868 167.761L108.771 156.228L127.274 147.513Z" fill="#263238"/>
<path d="M136.426 104.753C136.86 101.225 134.353 98.0137 130.826 97.5794C127.299 97.1451 124.087 99.6524 123.653 103.18C123.218 106.707 125.726 109.918 129.253 110.353C132.78 110.787 135.992 108.28 136.426 104.753Z" fill="#263238"/>
<path d="M130.072 85.9162C130.072 85.9162 132.046 82.7102 132.651 82.9438C133.255 83.1774 132.257 86.2322 132.257 86.2322C132.257 86.2322 135.243 86.8551 134.689 87.6062C134.135 88.3574 130.484 88.1787 130.484 88.1787L130.072 85.9162Z" fill="#263238"/>
<path d="M131.447 94.1786C130.073 104.502 121.371 104.502 121.371 104.502L103.142 96.4777C103.142 96.4777 101.768 95.2732 101.347 92.5069C101.185 91.3737 101.185 90.2234 101.347 89.0902C101.347 89.0902 101.347 89.0673 101.347 89.0581C101.928 84.7163 105.176 80.0493 112.247 78.6157C113.797 78.3028 115.375 78.1494 116.955 78.1577C117.72 78.155 118.485 78.1933 119.245 78.2722C124.741 78.8127 128.593 81.3775 130.43 85.3667C130.843 86.267 131.15 87.2122 131.346 88.1834C131.719 90.1616 131.753 92.1889 131.447 94.1786Z" fill="#263238"/>
<path d="M87.6847 114.147C87.6847 114.147 81.2132 113.923 78.7217 120.23C78.7217 120.23 81.4697 122.084 85.0741 120.23C88.6786 118.375 87.6847 114.147 87.6847 114.147Z" fill="#0B2D1B"/>
<path opacity="0.5" d="M87.6847 114.147C87.6847 114.147 81.2132 113.923 78.7217 120.23C78.7217 120.23 81.4697 122.084 85.0741 120.23C88.6786 118.375 87.6847 114.147 87.6847 114.147Z" fill="black"/>
<path d="M87.5011 117.184C87.5011 117.184 85.6691 109.224 84.7027 109.128C83.7363 109.031 83.5485 111.555 83.6264 112.979L81.3364 108.051C81.2637 107.898 81.1605 107.762 81.033 107.65C80.9055 107.538 80.7565 107.454 80.5952 107.402C80.4338 107.35 80.2636 107.332 80.0949 107.348C79.9262 107.364 79.7626 107.415 79.6143 107.497C77.3243 108.757 73.3076 112.586 81.7761 122.052L87.5011 117.184Z" fill="#945959"/>
<path d="M110.951 111.679L109.577 111.5C108.192 111.316 106.783 111.505 105.495 112.046C104.208 112.587 103.087 113.461 102.249 114.578L94.0733 125.46L87.6613 114.147C87.6613 114.147 86.8919 121.842 78.6982 120.23L87.4964 135.037C88.0532 135.974 88.8282 136.763 89.7555 137.337C90.6827 137.91 91.7348 138.251 92.8222 138.331C93.9096 138.41 95.0001 138.226 96.001 137.794C97.0019 137.361 97.8835 136.694 98.5709 135.847L106.1 126.591L110.951 111.679Z" fill="#0B2D1B"/>
<path d="M128.4 137.075C126.568 141.719 126.367 142.626 127.484 144.948C128.262 146.663 128.876 148.448 129.316 150.279C129.316 150.279 120.825 159.796 108.738 156.233L103.306 153.1C102.177 152.449 101.159 151.62 100.293 150.645L101.946 138.316C102.029 137.667 101.963 137.008 101.754 136.388L100.018 131.299C99.1708 128.814 99.0447 126.14 99.6542 123.586C100.264 121.032 101.584 118.703 103.462 116.868L109.297 111.166L124.622 113.126L126.912 113.781C128.411 114.215 129.703 115.175 130.551 116.485C131.399 117.795 131.746 119.367 131.528 120.912C130.777 126.316 129.55 134.157 128.4 137.075Z" fill="#0B2D1B"/>
<path opacity="0.5" d="M128.4 137.075C126.568 141.719 126.367 142.626 127.484 144.948C128.262 146.663 128.876 148.448 129.316 150.279C129.316 150.279 120.825 159.796 108.738 156.233L103.306 153.1C102.177 152.449 101.159 151.62 100.293 150.645L101.946 138.316C102.029 137.667 101.963 137.008 101.754 136.388L100.018 131.299C99.1708 128.814 99.0447 126.14 99.6542 123.586C100.264 121.032 101.584 118.703 103.462 116.868L109.297 111.166L124.622 113.126L126.912 113.781C128.411 114.215 129.703 115.175 130.551 116.485C131.399 117.795 131.746 119.367 131.528 120.912C130.777 126.316 129.55 134.157 128.4 137.075Z" fill="black"/>
<path d="M119.158 123.202L116.09 120.587C115.765 120.309 115.373 120.12 114.953 120.04C114.533 119.96 114.099 119.99 113.694 120.129L109.984 121.407L109.485 119.327C109.407 119.004 109.265 118.699 109.066 118.433C108.867 118.166 108.616 117.942 108.329 117.775C108.041 117.607 107.723 117.5 107.392 117.459C107.062 117.418 106.727 117.444 106.407 117.537L104.8 117.995L107.52 112.783C108.409 111.085 109.777 109.687 111.455 108.761L112.522 108.175L121.338 108.633C121.338 108.633 124.622 110.007 124.622 113.099L119.158 123.175" fill="#0B2D1B"/>
<path d="M121.375 112.54L112.535 119.428V97.4944H121.375V112.54Z" fill="#945959"/>
<path d="M112.673 110.731L109.984 121.425L121.338 112.54L112.673 110.731Z" fill="#945959"/>
<path d="M112.535 109.141C114.5 108.412 116.297 107.29 117.816 105.844C119.335 104.399 120.544 102.66 121.37 100.733V97.4944H112.53L112.535 109.141Z" fill="#703838"/>
<path d="M114.44 81.2401C111.088 81.2401 103.961 83.1087 103.137 91.884C102.312 100.659 103.109 107.456 107.634 108.115C112.159 108.775 122.675 105.491 124.086 94.1327C125.496 82.7743 117.706 81.2401 114.44 81.2401Z" fill="#945959"/>
<path d="M109.165 95.5983V100.769L106.133 99.8394L109.165 95.5983Z" fill="#703838"/>
<path d="M112.536 97.5448C113.118 97.5448 113.589 97.0732 113.589 96.4914C113.589 95.9097 113.118 95.438 112.536 95.438C111.954 95.438 111.482 95.9097 111.482 96.4914C111.482 97.0732 111.954 97.5448 112.536 97.5448Z" fill="#263238"/>
<path d="M106.655 95.7587C106.654 95.9668 106.591 96.17 106.475 96.3426C106.359 96.5153 106.194 96.6496 106.001 96.7286C105.809 96.8076 105.597 96.8278 105.393 96.7867C105.189 96.7455 105.002 96.6448 104.855 96.4973C104.708 96.3498 104.608 96.1621 104.568 95.9579C104.527 95.7537 104.549 95.5421 104.628 95.3499C104.708 95.1577 104.843 94.9934 105.016 94.8779C105.19 94.7624 105.393 94.7007 105.601 94.7007C105.74 94.7007 105.877 94.7281 106.005 94.7813C106.134 94.8345 106.25 94.9125 106.348 95.0108C106.446 95.1091 106.523 95.2258 106.576 95.3541C106.628 95.4825 106.655 95.6199 106.655 95.7587Z" fill="#263238"/>
<path d="M104.314 93.5602L106.375 92.3374C106.375 92.3374 105.587 91.5176 104.799 92.0076C104.012 92.4977 104.314 93.5602 104.314 93.5602Z" fill="#263238"/>
<path d="M107.74 102.867C108.744 102.94 109.743 102.672 110.575 102.107C110.575 102.107 110.772 103.604 109.517 103.888C108.262 104.172 107.74 102.867 107.74 102.867Z" fill="#703838"/>
<path d="M105.94 84.2262C105.94 84.2262 107.2 96.3403 123.674 96.7205C123.674 96.7205 128.653 84.6797 118.815 80.7683C108.977 76.857 105.94 84.2262 105.94 84.2262Z" fill="#263238"/>
<path d="M128.524 94.9068L126.5 93.7343C125.73 93.2763 124.668 93.3404 123.491 94.0183C121.155 95.3648 119.259 98.6486 119.259 101.346C119.259 102.697 119.717 103.636 120.505 104.094L122.492 105.239L122.607 105.303L122.675 105.345C123.427 105.711 124.43 105.624 125.533 104.987C127.869 103.613 129.765 100.357 129.765 97.6594C129.752 96.2945 129.28 95.351 128.524 94.9068Z" fill="#0B2D1B"/>
<path d="M128.508 101.805C130.16 98.9443 130.16 95.852 128.508 94.8984C126.857 93.9448 124.179 95.491 122.527 98.3519C120.875 101.213 120.875 104.305 122.527 105.259C124.178 106.212 126.856 104.666 128.508 101.805Z" fill="#0B2D1B"/>
<path opacity="0.5" d="M128.508 101.805C130.16 98.9443 130.16 95.852 128.508 94.8984C126.857 93.9448 124.179 95.491 122.527 98.3519C120.875 101.213 120.875 104.305 122.527 105.259C124.178 106.212 126.856 104.666 128.508 101.805Z" fill="black"/>
<path d="M129.335 97.4487L127.961 96.6472C127.439 96.3357 126.71 96.377 125.904 96.8395C125.062 97.3898 124.362 98.1305 123.859 99.0017C123.356 99.873 123.065 100.85 123.01 101.855C123.01 102.771 123.335 103.426 123.862 103.728L125.236 104.511C125.26 104.529 125.286 104.544 125.314 104.557L125.359 104.584C125.681 104.706 126.028 104.748 126.37 104.705C126.712 104.662 127.038 104.535 127.32 104.337C128.161 103.787 128.861 103.047 129.364 102.177C129.867 101.306 130.158 100.33 130.214 99.3265C130.177 98.3967 129.857 97.751 129.335 97.4487Z" fill="#0B2D1B"/>
<path d="M130.178 99.3173C130.122 100.321 129.83 101.297 129.328 102.168C128.825 103.038 128.124 103.778 127.283 104.328C125.68 105.244 124.384 104.502 124.384 102.656C124.438 101.652 124.729 100.674 125.233 99.8034C125.737 98.9327 126.439 98.1933 127.283 97.6456C128.881 96.7205 130.178 97.467 130.178 99.3173Z" fill="#0B2D1B"/>
<path opacity="0.3" d="M130.178 99.3173C130.122 100.321 129.83 101.297 129.328 102.168C128.825 103.038 128.124 103.778 127.283 104.328C125.68 105.244 124.384 104.502 124.384 102.656C124.438 101.652 124.729 100.674 125.233 99.8034C125.737 98.9327 126.439 98.1933 127.283 97.6456C128.881 96.7205 130.178 97.467 130.178 99.3173Z" fill="black"/>
<path d="M122.236 78.8768C120.923 77.8626 119.315 77.3046 117.656 77.2875H117.248C115.568 77.2694 113.891 77.4229 112.242 77.7455C112.544 77.7455 112.847 77.7455 113.158 77.7455H112.242V78.5974H113.094C116.03 78.6972 118.812 79.9348 120.852 82.0484C122.892 84.162 124.031 86.9861 124.027 89.9237V93.5282C124.026 93.6707 124.056 93.8116 124.114 93.9418C124.172 94.072 124.256 94.1886 124.362 94.2841C124.468 94.3795 124.593 94.4516 124.728 94.4958C124.864 94.5399 125.007 94.5551 125.149 94.5404H125.254L126.17 94.2564C126.109 94.2756 126.046 94.2879 125.982 94.293C126.255 94.256 126.505 94.1197 126.684 93.9103C126.863 93.7008 126.959 93.4327 126.953 93.1572V89.8138C126.944 83.7636 124.329 80.5118 122.236 78.8768Z" fill="#0B2D1B"/>
<path d="M116.469 107.864C116.091 107.864 115.718 107.782 115.375 107.625L112.512 106.302C112.467 106.286 112.426 106.261 112.392 106.228C112.357 106.195 112.33 106.156 112.311 106.112C112.293 106.068 112.284 106.021 112.284 105.974C112.285 105.926 112.295 105.879 112.315 105.836C112.335 105.793 112.363 105.754 112.399 105.722C112.434 105.691 112.476 105.667 112.521 105.652C112.566 105.637 112.614 105.632 112.661 105.636C112.709 105.641 112.755 105.656 112.796 105.679L115.659 107.003C116.024 107.172 116.433 107.224 116.828 107.15C117.224 107.076 117.587 106.88 117.866 106.59L120.614 103.751C120.678 103.686 120.766 103.65 120.857 103.65C120.948 103.65 121.035 103.686 121.1 103.751C121.163 103.816 121.198 103.903 121.198 103.993C121.198 104.084 121.163 104.171 121.1 104.236L118.352 107.076C118.107 107.327 117.814 107.526 117.491 107.662C117.167 107.797 116.82 107.866 116.469 107.864Z" fill="#0B2D1B"/>
<path opacity="0.5" d="M116.469 107.864C116.091 107.864 115.718 107.782 115.375 107.625L112.512 106.302C112.467 106.286 112.426 106.261 112.392 106.228C112.357 106.195 112.33 106.156 112.311 106.112C112.293 106.068 112.284 106.021 112.284 105.974C112.285 105.926 112.295 105.879 112.315 105.836C112.335 105.793 112.363 105.754 112.399 105.722C112.434 105.691 112.476 105.667 112.521 105.652C112.566 105.637 112.614 105.632 112.661 105.636C112.709 105.641 112.755 105.656 112.796 105.679L115.659 107.003C116.024 107.172 116.433 107.224 116.828 107.15C117.224 107.076 117.587 106.88 117.866 106.59L120.614 103.751C120.678 103.686 120.766 103.65 120.857 103.65C120.948 103.65 121.035 103.686 121.1 103.751C121.163 103.816 121.198 103.903 121.198 103.993C121.198 104.084 121.163 104.171 121.1 104.236L118.352 107.076C118.107 107.327 117.814 107.526 117.491 107.662C117.167 107.797 116.82 107.866 116.469 107.864Z" fill="black"/>
<path d="M113.264 105.34C113.264 105.604 113.185 105.863 113.038 106.083C112.891 106.303 112.682 106.474 112.438 106.576C112.194 106.677 111.925 106.703 111.665 106.652C111.406 106.6 111.168 106.473 110.981 106.286C110.794 106.099 110.666 105.86 110.615 105.601C110.563 105.341 110.589 105.073 110.691 104.828C110.792 104.584 110.963 104.375 111.183 104.228C111.403 104.081 111.662 104.003 111.926 104.003C112.281 104.003 112.621 104.144 112.872 104.394C113.123 104.645 113.264 104.985 113.264 105.34Z" fill="#0B2D1B"/>
<path opacity="0.5" d="M113.264 105.34C113.264 105.604 113.185 105.863 113.038 106.083C112.891 106.303 112.682 106.474 112.438 106.576C112.194 106.677 111.925 106.703 111.665 106.652C111.406 106.6 111.168 106.473 110.981 106.286C110.794 106.099 110.666 105.86 110.615 105.601C110.563 105.341 110.589 105.073 110.691 104.828C110.792 104.584 110.963 104.375 111.183 104.228C111.403 104.081 111.662 104.003 111.926 104.003C112.281 104.003 112.621 104.144 112.872 104.394C113.123 104.645 113.264 104.985 113.264 105.34Z" fill="black"/>
<path d="M126.944 89.8138V93.1572C126.95 93.4327 126.854 93.7008 126.675 93.9103C126.496 94.1197 126.246 94.256 125.973 94.293C125.822 94.3091 125.67 94.2932 125.526 94.2465C125.381 94.1997 125.248 94.123 125.136 94.0215C125.023 93.92 124.933 93.7959 124.871 93.6572C124.809 93.5185 124.778 93.3685 124.778 93.2167V89.8138C124.781 88.1897 124.455 86.5819 123.82 85.0871C123.185 83.5922 122.254 82.2413 121.083 81.1156C119.912 79.9899 118.526 79.1126 117.008 78.5366C115.489 77.9606 113.87 77.6977 112.247 77.7638C113.896 77.4412 115.573 77.2877 117.253 77.3058H117.651C119.31 77.3229 120.918 77.8809 122.231 78.8951C124.329 80.5118 126.944 83.7636 126.944 89.8138Z" fill="#0B2D1B"/>
<path opacity="0.5" d="M126.944 89.8138V93.1572C126.95 93.4327 126.854 93.7008 126.675 93.9103C126.496 94.1197 126.246 94.256 125.973 94.293C125.822 94.3091 125.67 94.2932 125.526 94.2465C125.381 94.1997 125.248 94.123 125.136 94.0215C125.023 93.92 124.933 93.7959 124.871 93.6572C124.809 93.5185 124.778 93.3685 124.778 93.2167V89.8138C124.781 88.1897 124.455 86.5819 123.82 85.0871C123.185 83.5922 122.254 82.2413 121.083 81.1156C119.912 79.9899 118.526 79.1126 117.008 78.5366C115.489 77.9606 113.87 77.6977 112.247 77.7638C113.896 77.4412 115.573 77.2877 117.253 77.3058H117.651C119.31 77.3229 120.918 77.8809 122.231 78.8951C124.329 80.5118 126.944 83.7636 126.944 89.8138Z" fill="black"/>
<path d="M121.796 152.821C121.796 152.821 119.579 158.926 127.503 161.674C127.503 161.674 130.09 157.873 127.503 154.763C124.915 151.653 121.796 152.821 121.796 152.821Z" fill="#0B2D1B"/>
<path opacity="0.7" d="M121.796 152.821C121.796 152.821 119.579 158.926 127.503 161.674C127.503 161.674 130.09 157.873 127.503 154.763C124.915 151.653 121.796 152.821 121.796 152.821Z" fill="black"/>
<path d="M124.576 153.1C124.576 153.1 116.835 155.935 116.877 157.034C116.918 158.134 120.165 157.383 120.165 157.383L118.979 158.161C117.73 158.976 116.762 160.156 116.208 161.541C116.087 161.847 116.083 162.186 116.196 162.494C116.309 162.802 116.532 163.058 116.822 163.213L119.762 164.77C119.928 164.858 120.11 164.912 120.297 164.929C120.485 164.945 120.673 164.924 120.852 164.866C121.031 164.809 121.197 164.716 121.339 164.593C121.481 164.47 121.598 164.32 121.681 164.152C121.845 163.828 122.072 163.54 122.347 163.304C122.623 163.068 122.943 162.889 123.289 162.778C124.887 162.246 127.869 160.717 129.064 156.531L124.576 153.1Z" fill="#945959"/>
<path d="M126.898 113.772C126.898 113.772 122.776 116.062 124.965 123.014C127.155 129.967 131.263 140.753 131.263 140.753L121.796 152.821C122.807 152.943 123.782 153.277 124.655 153.801C125.529 154.325 126.282 155.027 126.866 155.862C127.425 156.711 127.775 157.681 127.885 158.691C127.996 159.702 127.865 160.724 127.503 161.674L139.255 146.56C140.342 145.163 141.063 143.518 141.354 141.772C141.645 140.026 141.497 138.236 140.922 136.562L135.884 121.851C135.268 120.054 134.245 118.424 132.894 117.088C131.543 115.753 129.902 114.748 128.098 114.152L126.898 113.772Z" fill="#0B2D1B"/>
<path d="M57.3187 72.7029L39.104 62.1689C38.8944 62.0236 38.6519 61.9329 38.3984 61.9049C38.1449 61.8769 37.8884 61.9126 37.6522 62.0086C37.6024 62.0316 37.5549 62.0592 37.5102 62.0911L33.5485 64.4131H33.576C33.0768 64.6971 32.7607 65.3566 32.7607 66.3001V86.562C32.7607 88.2749 33.8004 90.2672 35.0874 91.0092L53.302 101.543C53.5332 101.71 53.8083 101.806 54.0932 101.818C54.3782 101.83 54.6605 101.759 54.905 101.612C54.8927 101.617 54.8817 101.625 54.873 101.635L58.8072 99.3448C59.3202 99.07 59.6453 98.4013 59.6453 97.4441V77.1501C59.6453 75.4372 58.624 73.4449 57.3187 72.7029Z" fill="#0B2D1B"/>
<path d="M58.9953 74.6219C58.6268 73.8382 58.0461 73.1734 57.319 72.7029L39.1044 62.1689C38.8948 62.0236 38.6522 61.9329 38.3987 61.9049C38.1452 61.8769 37.8888 61.9126 37.6525 62.0086C37.6027 62.0316 37.5552 62.0592 37.5105 62.0911L33.5488 64.4131C33.7912 64.2892 34.0629 64.2344 34.3343 64.2546C34.6057 64.2748 34.8664 64.3692 35.0877 64.5276L53.3024 75.0616C54.0542 75.5531 54.65 76.2491 55.0199 77.0676L58.9953 74.6219Z" fill="#0B2D1B"/>
<path d="M55.6287 99.7616C55.6287 100.678 55.3356 101.314 54.873 101.594L58.8073 99.3036C59.3202 99.0288 59.6454 98.3601 59.6454 97.4029V77.1501C59.626 76.2686 59.4035 75.4034 58.995 74.6219L55.0196 77.0677C55.4013 77.8261 55.6094 78.66 55.6287 79.5088V99.7616Z" fill="#0B2D1B"/>
<path opacity="0.3" d="M58.9953 74.6219C58.6268 73.8382 58.0461 73.1734 57.319 72.7029L39.1044 62.1689C38.8948 62.0236 38.6522 61.9329 38.3987 61.9049C38.1452 61.8769 37.8888 61.9126 37.6525 62.0086C37.6027 62.0316 37.5552 62.0592 37.5105 62.0911L33.5488 64.4131C33.7912 64.2892 34.0629 64.2344 34.3343 64.2546C34.6057 64.2748 34.8664 64.3692 35.0877 64.5276L53.3024 75.0616C54.0542 75.5531 54.65 76.2491 55.0199 77.0676L58.9953 74.6219Z" fill="black"/>
<path opacity="0.6" d="M55.6287 99.7616C55.6287 100.678 55.3356 101.314 54.873 101.594L58.8073 99.3036C59.3202 99.0288 59.6454 98.3601 59.6454 97.4029V77.1501C59.626 76.2686 59.4035 75.4034 58.995 74.6219L55.0196 77.0677C55.4013 77.8261 55.6094 78.66 55.6287 79.5088V99.7616Z" fill="black"/>
<path d="M50.2884 85.3117C50.2884 87.936 49.2487 88.8291 47.6915 87.9268C47.2619 87.6823 46.8863 87.3533 46.5872 86.9598C46.2881 86.5662 46.0717 86.1162 45.9511 85.6368C45.4931 86.2002 44.7832 86.2368 43.7848 85.6597C42.1451 84.7117 40.8536 82.4537 40.8536 80.2599C40.8536 78.0661 42.1314 77.3104 43.7848 78.263C44.6238 78.7575 45.3014 79.4845 45.7358 80.3561V79.4905L47.4625 80.4889V85.2338C47.4368 85.4835 47.48 85.7355 47.5874 85.9623C47.6947 86.1892 47.8622 86.3824 48.0716 86.5208C48.6533 86.8597 49.0105 86.2872 49.0105 84.588C49.0105 81.6156 47.1053 78.4646 44.2886 76.8387C41.4719 75.2128 39.5712 76.344 39.5712 79.4035C39.6081 81.0269 40.0554 82.6145 40.8715 84.0184C41.6875 85.4223 42.8458 86.5967 44.2382 87.4322C44.9942 87.8979 45.8528 88.1715 46.7389 88.2291L47.1465 89.8092C46.1147 89.726 45.1177 89.3978 44.2382 88.852C40.5742 86.7315 38.1514 82.4629 38.1514 78.5974C38.1514 74.7319 40.5971 73.3304 44.2886 75.4647C47.8564 77.5211 50.2884 81.6385 50.2884 85.3117ZM45.7633 83.1087C45.7722 82.5279 45.6305 81.9548 45.352 81.4451C45.0735 80.9354 44.6676 80.5066 44.1741 80.2004C43.2581 79.6645 42.6031 80.0401 42.6031 81.2858C42.5913 81.8675 42.7297 82.4425 43.0049 82.9551C43.2801 83.4678 43.6827 83.9008 44.1741 84.2125C45.0901 84.73 45.7633 84.3957 45.7633 83.1087Z" fill="#0B2D1B"/>
<g opacity="0.9">
<path d="M50.2884 85.3117C50.2884 87.936 49.2487 88.8291 47.6915 87.9268C47.2619 87.6823 46.8863 87.3533 46.5872 86.9598C46.2881 86.5662 46.0717 86.1162 45.9511 85.6368C45.4931 86.2002 44.7832 86.2368 43.7848 85.6597C42.1451 84.7117 40.8536 82.4537 40.8536 80.2599C40.8536 78.0661 42.1314 77.3104 43.7848 78.263C44.6238 78.7575 45.3014 79.4845 45.7358 80.3561V79.4905L47.4625 80.4889V85.2338C47.4368 85.4835 47.48 85.7355 47.5874 85.9623C47.6947 86.1892 47.8622 86.3824 48.0716 86.5208C48.6533 86.8597 49.0105 86.2872 49.0105 84.588C49.0105 81.6156 47.1053 78.4646 44.2886 76.8387C41.4719 75.2128 39.5712 76.344 39.5712 79.4035C39.6081 81.0269 40.0554 82.6145 40.8715 84.0184C41.6875 85.4223 42.8458 86.5967 44.2382 87.4322C44.9942 87.8979 45.8528 88.1715 46.7389 88.2291L47.1465 89.8092C46.1147 89.726 45.1177 89.3978 44.2382 88.852C40.5742 86.7315 38.1514 82.4629 38.1514 78.5974C38.1514 74.7319 40.5971 73.3304 44.2886 75.4647C47.8564 77.5211 50.2884 81.6385 50.2884 85.3117ZM45.7633 83.1087C45.7722 82.5279 45.6305 81.9548 45.352 81.4451C45.0735 80.9354 44.6676 80.5066 44.1741 80.2004C43.2581 79.6645 42.6031 80.0401 42.6031 81.2858C42.5913 81.8675 42.7297 82.4425 43.0049 82.9551C43.2801 83.4678 43.6827 83.9008 44.1741 84.2125C45.0901 84.73 45.7633 84.3957 45.7633 83.1087Z" fill="white"/>
</g>
<path d="M57.3187 108.784L39.104 98.2502C38.8947 98.1041 38.6519 98.0132 38.3981 97.986C38.1443 97.9588 37.8877 97.9961 37.6522 98.0945C37.6024 98.1174 37.5549 98.1451 37.5102 98.1769L33.5485 100.499H33.576C33.0768 100.783 32.7607 101.442 32.7607 102.381V122.634C32.7607 124.352 33.8004 126.339 35.0874 127.081L53.302 137.615C53.5327 137.784 53.8079 137.88 54.0931 137.892C54.3784 137.904 54.6609 137.832 54.905 137.684L54.873 137.711L58.8072 135.399C59.3202 135.128 59.6453 134.483 59.6453 133.498V113.227C59.6453 111.514 58.624 109.526 57.3187 108.784Z" fill="#0B2D1B"/>
<path d="M58.9953 110.703C58.628 109.919 58.0471 109.254 57.319 108.784L39.1044 98.2502C38.895 98.1041 38.6522 98.0132 38.3984 97.986C38.1446 97.9588 37.888 97.9961 37.6525 98.0945C37.6027 98.1174 37.5552 98.1451 37.5105 98.1769L33.5488 100.499C33.7906 100.374 34.0622 100.318 34.3337 100.337C34.6052 100.357 34.8661 100.451 35.0877 100.609L53.3024 111.143C54.0554 111.635 54.6514 112.333 55.0199 113.154L58.9953 110.703Z" fill="#0B2D1B"/>
<path d="M55.6287 135.838C55.6287 136.754 55.3356 137.391 54.873 137.693L58.8073 135.38C59.3202 135.11 59.6454 134.464 59.6454 133.48V113.227C59.626 112.347 59.4034 111.483 58.995 110.703L55.0196 113.149C55.4012 113.906 55.6093 114.738 55.6287 115.585V135.838Z" fill="#0B2D1B"/>
<path opacity="0.3" d="M58.9953 110.703C58.628 109.919 58.0471 109.254 57.319 108.784L39.1044 98.2502C38.895 98.1041 38.6522 98.0132 38.3984 97.986C38.1446 97.9588 37.888 97.9961 37.6525 98.0945C37.6027 98.1174 37.5552 98.1451 37.5105 98.1769L33.5488 100.499C33.7906 100.374 34.0622 100.318 34.3337 100.337C34.6052 100.357 34.8661 100.451 35.0877 100.609L53.3024 111.143C54.0554 111.635 54.6514 112.333 55.0199 113.154L58.9953 110.703Z" fill="black"/>
<path opacity="0.6" d="M55.6287 135.838C55.6287 136.754 55.3356 137.391 54.873 137.693L58.8073 135.38C59.3202 135.11 59.6454 134.464 59.6454 133.48V113.227C59.626 112.347 59.4034 111.483 58.995 110.703L55.0196 113.149C55.4012 113.906 55.6093 114.738 55.6287 115.585V135.838Z" fill="black"/>
<path d="M42.1588 117.839L37.7666 110.703V120.372L42.1588 117.839Z" fill="#0B2D1B"/>
<path d="M46.2393 119.895L50.6223 127.484V117.83L46.2393 119.895Z" fill="#0B2D1B"/>
<path d="M38.4307 110.378L42.942 117.706C42.9611 117.722 42.978 117.741 42.9923 117.761C42.9963 117.779 42.9963 117.798 42.9923 117.816L44.3343 119.996L45.4701 119.46C45.4878 119.441 45.5078 119.424 45.5297 119.41C45.5744 119.384 45.6245 119.368 45.6762 119.364L50.2562 117.216L38.4307 110.378Z" fill="#0B2D1B"/>
<path d="M45.5753 120.207L44.3479 120.784C44.3006 120.806 44.2489 120.817 44.1967 120.816C44.1335 120.817 44.0712 120.801 44.0158 120.77C43.9604 120.74 43.9139 120.696 43.8807 120.642L42.5388 118.462L38.1328 121.008L49.9904 127.851L45.5753 120.207Z" fill="#0B2D1B"/>
<g opacity="0.9">
<path d="M42.1588 117.839L37.7666 110.703V120.372L42.1588 117.839Z" fill="white"/>
<path d="M46.2393 119.895L50.6223 127.484V117.83L46.2393 119.895Z" fill="white"/>
<path d="M38.4307 110.378L42.942 117.706C42.9611 117.722 42.978 117.741 42.9923 117.761C42.9963 117.779 42.9963 117.798 42.9923 117.816L44.3343 119.996L45.4701 119.46C45.4878 119.441 45.5078 119.424 45.5297 119.41C45.5744 119.384 45.6245 119.368 45.6762 119.364L50.2562 117.216L38.4307 110.378Z" fill="white"/>
<path d="M45.5753 120.207L44.3479 120.784C44.3006 120.806 44.2489 120.817 44.1967 120.816C44.1335 120.817 44.0712 120.801 44.0158 120.77C43.9604 120.74 43.9139 120.696 43.8807 120.642L42.5388 118.462L38.1328 121.008L49.9904 127.851L45.5753 120.207Z" fill="white"/>
</g>
<path d="M57.3187 36.64L39.104 26.106C38.8947 25.9599 38.6519 25.8691 38.3981 25.8418C38.1443 25.8146 37.8877 25.8519 37.6522 25.9503C37.6024 25.9733 37.5549 26.0009 37.5102 26.0327L33.5485 28.3548H33.576C33.0768 28.6342 32.7607 29.2983 32.7607 30.2372V50.4899C32.7607 52.2029 33.8004 54.1952 35.0874 54.9371L53.302 65.4711C53.5327 65.6394 53.8079 65.7357 54.0931 65.7479C54.3784 65.7602 54.6609 65.6878 54.905 65.5398L54.873 65.5627L58.8072 63.2727C59.3202 63.0025 59.6453 62.3567 59.6453 61.372V41.0689C59.6453 39.356 58.624 37.3637 57.3187 36.64Z" fill="#0B2D1B"/>
<path d="M58.9953 38.5453C58.6281 37.7595 58.0472 37.0929 57.319 36.6217L39.1044 26.106C38.895 25.9599 38.6522 25.8691 38.3984 25.8418C38.1446 25.8146 37.888 25.8519 37.6525 25.9503C37.6027 25.9733 37.5552 26.0009 37.5105 26.0327L33.5488 28.3548C33.7906 28.2298 34.0622 28.1739 34.3337 28.1933C34.6052 28.2127 34.8661 28.3066 35.0877 28.4647L53.3024 38.9987C54.0554 39.4909 54.6514 40.1887 55.0199 41.0093L58.9953 38.5453Z" fill="#0B2D1B"/>
<path d="M55.6287 63.662C55.6287 64.578 55.3356 65.2146 54.873 65.494L58.8073 63.204C59.3202 62.9338 59.6454 62.288 59.6454 61.3033V41.0689C59.626 40.1888 59.4034 39.3251 58.995 38.5453L55.0196 40.991C55.4012 41.7478 55.6093 42.5802 55.6287 43.4276V63.662Z" fill="#0B2D1B"/>
<path opacity="0.3" d="M58.9953 38.5453C58.6281 37.7595 58.0472 37.0929 57.319 36.6217L39.1044 26.106C38.895 25.9599 38.6522 25.8691 38.3984 25.8418C38.1446 25.8146 37.888 25.8519 37.6525 25.9503C37.6027 25.9733 37.5552 26.0009 37.5105 26.0327L33.5488 28.3548C33.7906 28.2298 34.0622 28.1739 34.3337 28.1933C34.6052 28.2127 34.8661 28.3066 35.0877 28.4647L53.3024 38.9987C54.0554 39.4909 54.6514 40.1887 55.0199 41.0093L58.9953 38.5453Z" fill="black"/>
<path opacity="0.6" d="M55.6287 63.662C55.6287 64.578 55.3356 65.2146 54.873 65.494L58.8073 63.204C59.3202 62.9338 59.6454 62.288 59.6454 61.3033V41.0689C59.626 40.1888 59.4034 39.3251 58.995 38.5453L55.0196 40.991C55.4012 41.7478 55.6093 42.5802 55.6287 43.4276V63.662Z" fill="black"/>
<path d="M49.6705 54.96C48.9698 53.8058 48.2645 52.67 47.5637 51.5067C47.4526 51.2863 47.2972 51.0913 47.1073 50.9337C46.9174 50.7761 46.697 50.6593 46.46 50.5907C46.121 50.522 45.7821 50.4441 45.434 50.3434C45.3101 50.2917 45.2058 50.2018 45.1363 50.0869C43.9897 48.1244 43.0781 46.0338 42.4204 43.8581C42.4064 43.8116 42.4024 43.7626 42.4087 43.7145C42.4151 43.6663 42.4315 43.62 42.457 43.5787C42.6723 43.3634 42.915 43.1665 43.1349 42.9741C43.3547 42.7818 43.4692 42.3375 43.3089 41.7604C42.97 40.5376 42.6448 39.3147 42.3059 38.0964C42.2403 37.7503 42.0847 37.4275 41.8548 37.1606C41.6248 36.8937 41.3286 36.692 40.996 36.5759C40.2574 36.3705 39.4733 36.3994 38.7518 36.6583C38.4724 36.7637 38.3259 37.0156 38.3213 37.4507C38.4404 38.2888 38.5182 39.1178 38.6785 39.9697C39.8083 46.113 42.5257 51.7616 46.8309 56.9157C46.9433 57.0866 47.0943 57.2287 47.2717 57.3305C47.4491 57.4323 47.648 57.4911 47.8523 57.5019C48.565 57.485 49.2498 57.2211 49.7896 56.7554C50.1972 56.389 50.156 55.7386 49.6705 54.96Z" fill="#0B2D1B"/>
<path d="M49.6152 48.7175C49.5193 47.4001 49.1563 46.1161 48.548 44.9436C48.0939 44.0276 47.516 43.1785 46.8305 42.42C46.6519 42.2185 46.5008 42.1544 46.4092 42.3055C46.3176 42.4566 46.4092 42.6719 46.5832 42.8688L46.7618 43.0749C48.0277 44.5362 48.8255 46.344 49.0518 48.2641C49.0496 48.4041 49.0634 48.544 49.093 48.6809C49.1506 48.8384 49.2429 48.9808 49.3633 49.0976C49.4594 49.1663 49.5694 49.0976 49.6472 49.0976C49.6197 48.9099 49.6243 48.8137 49.6152 48.7175Z" fill="#0B2D1B"/>
<path d="M45.4653 44.9573C46.0404 45.5899 46.3899 46.3951 46.4592 47.2473C46.4893 47.3769 46.5371 47.5017 46.6011 47.6183C46.8805 47.8473 47.0179 47.7694 47.0179 47.4809C46.92 46.3883 46.4681 45.3575 45.7309 44.5451C45.5569 44.3665 45.4149 44.3115 45.3325 44.4627C45.3028 44.549 45.2996 44.6421 45.3233 44.7303C45.347 44.8184 45.3964 44.8975 45.4653 44.9573Z" fill="#0B2D1B"/>
<g opacity="0.9">
<path d="M49.6705 54.96C48.9698 53.8058 48.2645 52.67 47.5637 51.5067C47.4526 51.2863 47.2972 51.0913 47.1073 50.9337C46.9174 50.7761 46.697 50.6593 46.46 50.5907C46.121 50.522 45.7821 50.4441 45.434 50.3434C45.3101 50.2917 45.2058 50.2018 45.1363 50.0869C43.9897 48.1244 43.0781 46.0338 42.4204 43.8581C42.4064 43.8116 42.4024 43.7626 42.4087 43.7145C42.4151 43.6663 42.4315 43.62 42.457 43.5787C42.6723 43.3634 42.915 43.1665 43.1349 42.9741C43.3547 42.7818 43.4692 42.3375 43.3089 41.7604C42.97 40.5376 42.6448 39.3147 42.3059 38.0964C42.2403 37.7503 42.0847 37.4275 41.8548 37.1606C41.6248 36.8937 41.3286 36.692 40.996 36.5759C40.2574 36.3705 39.4733 36.3994 38.7518 36.6583C38.4724 36.7637 38.3259 37.0156 38.3213 37.4507C38.4404 38.2888 38.5182 39.1178 38.6785 39.9697C39.8083 46.113 42.5257 51.7616 46.8309 56.9157C46.9433 57.0866 47.0943 57.2287 47.2717 57.3305C47.4491 57.4323 47.648 57.4911 47.8523 57.5019C48.565 57.485 49.2498 57.2211 49.7896 56.7554C50.1972 56.389 50.156 55.7386 49.6705 54.96Z" fill="white"/>
<path d="M49.6152 48.7175C49.5193 47.4001 49.1563 46.1161 48.548 44.9436C48.0939 44.0276 47.516 43.1785 46.8305 42.42C46.6519 42.2185 46.5008 42.1544 46.4092 42.3055C46.3176 42.4566 46.4092 42.6719 46.5832 42.8688L46.7618 43.0749C48.0277 44.5362 48.8255 46.344 49.0518 48.2641C49.0496 48.4041 49.0634 48.544 49.093 48.6809C49.1506 48.8384 49.2429 48.9808 49.3633 49.0976C49.4594 49.1663 49.5694 49.0976 49.6472 49.0976C49.6197 48.9099 49.6243 48.8137 49.6152 48.7175Z" fill="white"/>
<path d="M45.4663 44.9573C46.0414 45.5899 46.3909 46.3951 46.4601 47.2473C46.4903 47.3769 46.5381 47.5017 46.6021 47.6183C46.8815 47.8473 47.0189 47.7694 47.0189 47.4809C46.921 46.3883 46.4691 45.3575 45.7319 44.5451C45.5579 44.3665 45.4159 44.3115 45.3335 44.4627C45.3038 44.549 45.3006 44.6421 45.3243 44.7303C45.3479 44.8184 45.3974 44.8975 45.4663 44.9573Z" fill="white"/>
</g>
<path d="M150.774 24.4939L155.065 26.935V25.4144C155.065 25.3091 155.065 25.1992 155.065 25.0938C155.065 24.9885 155.065 24.8877 155.065 24.787V24.732C155.221 22.7214 156.746 21.9474 158.606 23.0237C159.448 23.5415 160.169 24.2332 160.722 25.0526C161.138 22.3046 163.369 21.3337 166.066 22.8863C169.062 24.6175 171.489 28.8403 171.489 32.2844V35.5362C171.485 35.7964 171.549 36.053 171.675 36.2805C171.802 36.508 171.985 36.6983 172.208 36.8324L174.736 38.3117C175.282 38.6352 175.734 39.0948 176.049 39.6456C176.364 40.1963 176.53 40.8193 176.532 41.4536C176.532 41.7168 176.463 41.9753 176.331 42.2032C176.199 42.431 176.01 42.6202 175.782 42.7516C175.554 42.883 175.295 42.952 175.032 42.9517C174.769 42.9514 174.511 42.8817 174.283 42.7497L150.838 29.1975C150.216 28.8363 149.699 28.3186 149.339 27.696C148.98 27.0733 148.789 26.3673 148.786 25.648C148.786 25.4152 148.847 25.1864 148.963 24.9846C149.079 24.7828 149.246 24.615 149.447 24.4981C149.649 24.3812 149.877 24.3193 150.11 24.3186C150.343 24.3178 150.572 24.3783 150.774 24.4939Z" fill="#E6E6E6"/>
<path d="M183.489 23.8572L186.608 25.648V24.5305C186.608 24.4526 186.608 24.3748 186.608 24.2969C186.608 24.219 186.608 24.1458 186.608 24.0725V24.045C186.722 22.584 187.83 22.0206 189.182 22.8038C189.793 23.1787 190.318 23.6799 190.72 24.274C191.027 22.2863 192.649 21.5672 194.609 22.6985C196.789 23.958 198.552 27.0174 198.552 29.5318V31.8997C198.554 32.0853 198.604 32.2673 198.697 32.4279C198.79 32.5885 198.923 32.7221 199.083 32.8157L200.915 33.892C201.314 34.1264 201.644 34.4612 201.873 34.863C202.102 35.2648 202.222 35.7195 202.221 36.182C202.22 36.3714 202.171 36.5575 202.077 36.7219C201.983 36.8862 201.847 37.0233 201.684 37.1194C201.521 37.2156 201.336 37.2676 201.146 37.2702C200.957 37.2729 200.77 37.2262 200.604 37.1346L183.534 27.2785C183.082 27.0168 182.706 26.6409 182.445 26.1883C182.184 25.7357 182.046 25.2225 182.046 24.6999C182.046 24.5308 182.09 24.3646 182.174 24.2178C182.258 24.071 182.379 23.9489 182.525 23.8636C182.671 23.7783 182.837 23.7328 183.006 23.7317C183.175 23.7306 183.341 23.7739 183.489 23.8572Z" fill="#E6E6E6"/>
</svg>
