<svg width="1512" height="277" viewBox="0 0 1512 277" fill="none" xmlns="http://www.w3.org/2000/svg">
<g filter="url(#filter0_d_189_2170)">
<path d="M-1 105.181L55.5 67.4792C97.4507 43.9139 149.138 46.1867 188.858 73.3435L207 85.7472L254.5 127.336L272.55 113.81C297.184 95.3507 325.746 82.8268 356.013 77.2136L368.106 74.9708C394.757 70.028 422.135 70.5543 448.577 76.5177L489.5 85.7472L566.945 104.214C569.616 104.851 572.394 104.9 575.087 104.358L636.711 91.9516C657.225 87.8215 659.233 59.2835 639.5 52.3208L688.532 41.4306C723.637 33.6337 760.343 43.3439 787 67.4792L825.5 85.7472L850.707 74.6154C909.319 48.7315 978.007 71.5363 1009.5 127.336C1059.04 96.0922 1121.08 92.2215 1174.12 117.065L1245 150.268L1347.93 85.4236C1400.11 52.5557 1468.18 60.8042 1511 105.181V235H-1V105.181Z" fill="url(#paint0_linear_189_2170)"/>
</g>
<defs>
<filter id="filter0_d_189_2170" x="-31" y="0.79126" width="1592" height="276.209" filterUnits="userSpaceOnUse" color-interpolation-filters="sRGB">
<feFlood flood-opacity="0" result="BackgroundImageFix"/>
<feColorMatrix in="SourceAlpha" type="matrix" values="0 0 0 0 0 0 0 0 0 0 0 0 0 0 0 0 0 0 127 0" result="hardAlpha"/>
<feOffset dx="10" dy="2"/>
<feGaussianBlur stdDeviation="20"/>
<feComposite in2="hardAlpha" operator="out"/>
<feColorMatrix type="matrix" values="0 0 0 0 0.6625 0 0 0 0 0.6625 0 0 0 0 0.6625 0 0 0 0.25 0"/>
<feBlend mode="normal" in2="BackgroundImageFix" result="effect1_dropShadow_189_2170"/>
<feBlend mode="normal" in="SourceGraphic" in2="effect1_dropShadow_189_2170" result="shape"/>
</filter>
<linearGradient id="paint0_linear_189_2170" x1="362.5" y1="63.9811" x2="375.004" y2="167.558" gradientUnits="userSpaceOnUse">
<stop stop-color="#EEF7EB"/>
<stop offset="1" stop-color="#F6F8F5"/>
</linearGradient>
</defs>
</svg>
